<svg width="558" height="506" viewBox="0 0 558 506" fill="none" xmlns="http://www.w3.org/2000/svg">
<g filter="url(#filter0_i)">
<path d="M308.985 225.93C310.536 230.172 309.238 234.545 306.084 235.699C302.93 236.853 299.116 234.351 297.564 230.109C296.012 225.868 297.31 221.494 300.464 220.34C303.618 219.186 307.433 221.689 308.985 225.93Z" fill="white"/>
<path d="M256.77 245.27C258.322 249.512 257.023 253.885 253.869 255.039C250.716 256.193 246.901 253.69 245.349 249.449C243.797 245.208 245.096 240.834 248.25 239.68C251.403 238.526 255.218 241.029 256.77 245.27Z" fill="white"/>
<path d="M250.564 304.87C233.651 298.184 219.268 285.052 211.479 267.081C195.903 231.138 212.47 189.231 248.412 173.654C284.355 158.078 326.263 174.645 341.839 210.587C357.416 246.53 340.849 288.438 304.906 304.014C286.951 311.809 267.493 311.563 250.564 304.87ZM298.76 210.587C284.449 204.93 267.968 177.079 252.765 183.667C222.359 196.844 208.338 232.312 221.515 262.718C234.692 293.124 270.16 307.145 300.566 293.968C330.972 280.791 344.993 245.323 331.816 214.917C325.244 199.721 313.087 216.251 298.76 210.587Z" fill="white"/>
<path d="M297.431 306.869L307.459 302.523L320.497 332.607L310.469 336.953L297.431 306.869Z" fill="white"/>
<path d="M283.833 254.855C285.649 257.02 290.114 260.402 293.439 256.602" stroke="white" stroke-width="3.32291"/>
<path d="M283.833 254.855C283.504 257.662 281.63 262.94 276.764 261.59" stroke="white" stroke-width="3.32291"/>
<path d="M287.319 251.379C286.337 254.876 282.048 256.159 279.308 253.776C276.364 251.217 277.4 246.418 281.136 245.3C284.872 244.183 288.373 247.625 287.319 251.379Z" fill="white"/>
</g>
<path d="M316.112 405.952C315.779 405.952 315.451 405.867 315.159 405.705L300.339 397.484L285.487 405.653C284.829 406.017 284.019 405.97 283.406 405.536C283.105 405.323 282.869 405.029 282.727 404.689C282.584 404.349 282.54 403.975 282.6 403.611L285.479 386.124L273.414 373.713C272.907 373.191 272.728 372.428 272.956 371.736C273.067 371.396 273.269 371.092 273.54 370.858C273.811 370.624 274.14 370.468 274.493 370.408L284.017 368.775C285.1 368.594 286.104 369.311 286.287 370.38C286.47 371.449 285.752 372.465 284.681 372.65L278.836 373.653L288.991 384.098C289.425 384.546 289.622 385.173 289.522 385.786L287.138 400.261L299.397 393.516C299.989 393.19 300.708 393.19 301.298 393.52L313.53 400.304L311.195 385.824C311.095 385.208 311.295 384.582 311.73 384.137L321.843 373.804L307.984 371.666C307.335 371.565 306.781 371.149 306.502 370.555L300.41 357.512L294.264 370.522C293.8 371.504 292.629 371.923 291.646 371.459C290.666 370.995 290.245 369.824 290.709 368.841L298.641 352.048C298.967 351.36 299.659 350.922 300.417 350.922H300.421C300.795 350.923 301.16 351.03 301.474 351.231C301.789 351.432 302.04 351.718 302.198 352.056L309.617 367.939L326.22 370.502C326.949 370.614 327.552 371.125 327.786 371.823C328.018 372.52 327.839 373.293 327.326 373.818L315.232 386.175L318.052 403.67C318.172 404.413 317.855 405.16 317.24 405.593C316.904 405.834 316.509 405.952 316.112 405.952Z" fill="#393939" fill-opacity="0.22"/>
<path d="M179.47 119.721C176.437 118.96 172.17 119.721 169.445 124.032C166.669 119.721 162.453 118.96 159.42 119.721C155.822 120.634 152.377 123.931 152.737 129.359C153.251 137.374 159.832 144.374 169.085 146.809C169.188 146.809 169.239 146.86 169.342 146.86C169.393 146.86 169.445 146.86 169.445 146.86C169.496 146.86 169.548 146.86 169.548 146.86C169.651 146.86 169.702 146.86 169.805 146.809C171.193 146.454 172.324 146.149 173.763 145.49C174.277 145.237 174.483 144.628 174.277 144.121C174.072 143.613 173.403 143.41 172.889 143.613C171.656 144.171 170.679 144.476 169.445 144.78C161.117 142.548 155.204 136.308 154.742 129.207C154.485 124.997 157.158 122.359 159.883 121.699C163.996 120.634 167.029 123.525 168.365 126.315C168.571 126.721 168.982 126.924 169.445 126.873C169.856 126.924 170.319 126.721 170.525 126.315C171.861 123.525 174.895 120.634 179.007 121.699C181.783 122.409 184.457 124.997 184.148 129.207C183.84 133.924 181.218 138.236 176.797 141.381C176.334 141.686 176.231 142.345 176.54 142.802C176.745 143.055 177.054 143.208 177.362 143.208C177.568 143.208 177.774 143.157 177.979 143.005C182.915 139.505 185.845 134.635 186.205 129.308C186.513 123.982 183.017 120.634 179.47 119.721Z" fill="#393939" fill-opacity="0.2"/>
<path d="M414.783 148.949C409.728 147.668 402.617 148.949 398.075 156.211C393.448 148.949 386.422 147.667 381.367 148.949C375.369 150.487 369.629 156.04 370.228 165.182C371.085 178.681 382.053 190.471 397.475 194.572C397.647 194.572 397.732 194.657 397.904 194.657C397.989 194.657 398.075 194.657 398.075 194.657C398.161 194.657 398.246 194.657 398.246 194.657C398.418 194.657 398.503 194.657 398.675 194.572C400.988 193.974 402.873 193.461 405.272 192.35C406.129 191.923 406.472 190.898 406.129 190.044C405.786 189.189 404.672 188.848 403.816 189.189C401.759 190.129 400.131 190.642 398.075 191.154C384.194 187.395 374.341 176.887 373.57 164.926C373.142 157.835 377.597 153.392 382.138 152.282C388.993 150.487 394.048 155.357 396.276 160.056C396.619 160.74 397.304 161.081 398.075 160.996C398.761 161.081 399.532 160.74 399.874 160.056C402.102 155.357 407.158 150.487 414.012 152.282C418.639 153.478 423.094 157.835 422.58 164.926C422.066 172.871 417.697 180.133 410.328 185.43C409.557 185.943 409.385 187.054 409.9 187.823C410.242 188.25 410.756 188.506 411.27 188.506C411.613 188.506 411.956 188.421 412.299 188.164C420.524 182.269 425.408 174.067 426.008 165.097C426.522 156.126 420.696 150.487 414.784 148.949H414.783Z" fill="#393939" fill-opacity="0.2"/>
<path d="M396.445 92.9918C396.187 92.992 395.931 92.9413 395.693 92.8425C395.454 92.7437 395.238 92.5987 395.055 92.416L389.16 86.5201C388.391 85.7517 388.391 84.5096 389.16 83.7411C389.928 82.9727 391.17 82.9727 391.938 83.7411L396.445 88.2476L400.951 83.7411C401.319 83.3717 401.818 83.1653 402.341 83.1653H416.098C417.183 83.1653 418.063 82.2849 418.063 81.2V49.7553C418.063 48.6724 417.183 47.79 416.098 47.79H376.792C375.709 47.79 374.827 48.6724 374.827 49.7553V81.2C374.827 82.2849 375.709 83.1653 376.792 83.1653H382.688C383.773 83.1653 384.653 84.0438 384.653 85.1306C384.653 86.2174 383.773 87.0959 382.688 87.0959H376.792C373.541 87.0959 370.896 84.4506 370.896 81.2V49.7553C370.896 46.5047 373.541 43.8594 376.792 43.8594H416.098C419.348 43.8594 421.994 46.5047 421.994 49.7553V81.2C421.994 84.4506 419.348 87.0959 416.098 87.0959H403.154L397.834 92.416C397.652 92.5987 397.435 92.7437 397.197 92.8425C396.959 92.9413 396.703 92.992 396.445 92.9918Z" fill="#393939" fill-opacity="0.22"/>
<path d="M385.636 67.4467C384.01 67.4467 382.688 66.124 382.688 64.4987C382.688 62.8734 384.01 61.5508 385.636 61.5508C387.261 61.5508 388.584 62.8734 388.584 64.4987C388.584 66.124 387.261 67.4467 385.636 67.4467ZM397.427 67.4467C395.802 67.4467 394.48 66.124 394.48 64.4987C394.48 62.8734 395.802 61.5508 397.427 61.5508C399.053 61.5508 400.375 62.8734 400.375 64.4987C400.375 66.124 399.053 67.4467 397.427 67.4467ZM409.219 67.4467C407.594 67.4467 406.271 66.124 406.271 64.4987C406.271 62.8734 407.594 61.5508 409.219 61.5508C410.845 61.5508 412.167 62.8734 412.167 64.4987C412.167 66.124 410.845 67.4467 409.219 67.4467Z" fill="#393939" fill-opacity="0.22"/>
<path d="M80.5028 195.286C80.1211 195.286 79.743 195.211 79.3904 195.065C79.0378 194.919 78.7175 194.704 78.4479 194.434L69.7287 185.715C68.5922 184.578 68.5922 182.742 69.7287 181.605C70.8651 180.469 72.7019 180.469 73.8383 181.605L80.5028 188.27L87.1672 181.605C87.7107 181.059 88.4489 180.754 89.222 180.754H109.567C111.171 180.754 112.473 179.451 112.473 177.847V131.344C112.473 129.743 111.171 128.438 109.567 128.438H51.4385C49.8371 128.438 48.5321 129.743 48.5321 131.344V177.847C48.5321 179.451 49.8371 180.754 51.4385 180.754H60.1578C61.7621 180.754 63.0642 182.053 63.0642 183.66C63.0642 185.267 61.7621 186.566 60.1578 186.566H51.4385C46.6313 186.566 42.7192 182.654 42.7192 177.847V131.344C42.7192 126.537 46.6313 122.625 51.4385 122.625H109.567C114.374 122.625 118.286 126.537 118.286 131.344V177.847C118.286 182.654 114.374 186.566 109.567 186.566H90.4253L82.5576 194.434C82.2881 194.704 81.9678 194.919 81.6151 195.065C81.2625 195.211 80.8845 195.286 80.5028 195.286Z" fill="#393939" fill-opacity="0.22"/>
<path d="M64.5174 157.501C62.1138 157.501 60.1577 155.545 60.1577 153.141C60.1577 150.737 62.1138 148.781 64.5174 148.781C66.921 148.781 68.877 150.737 68.877 153.141C68.877 155.545 66.921 157.501 64.5174 157.501ZM81.9559 157.501C79.5523 157.501 77.5963 155.545 77.5963 153.141C77.5963 150.737 79.5523 148.781 81.9559 148.781C84.3595 148.781 86.3156 150.737 86.3156 153.141C86.3156 155.545 84.3595 157.501 81.9559 157.501ZM99.3945 157.501C96.9909 157.501 95.0348 155.545 95.0348 153.141C95.0348 150.737 96.9909 148.781 99.3945 148.781C101.798 148.781 103.754 150.737 103.754 153.141C103.754 155.545 101.798 157.501 99.3945 157.501Z" fill="#393939" fill-opacity="0.22"/>
<path d="M76.6406 77.3349C76.6406 76.9711 76.5779 76.666 76.5597 76.6317C76.5476 76.4498 76.487 76.1225 76.4284 75.9487C76.4122 75.9063 76.394 75.8618 76.3758 75.8173C76.3455 75.7183 76.3112 75.6213 76.2748 75.5446C70.6837 63.3176 58.6506 55.1016 46.3307 55.1016C34.0128 55.1016 21.9797 63.3115 16.4148 75.4718C16.3482 75.6052 16.3017 75.7305 16.2714 75.8416C16.2574 75.8751 16.2439 75.9087 16.231 75.9426C16.1198 76.2639 16.1178 76.4882 16.1279 76.4316C16.0754 76.668 16.0289 77.1368 16.0289 77.1368C16.0148 77.2803 16.0148 77.3914 16.0309 77.5349C16.0309 77.5349 16.0774 77.9431 16.0996 78.0279C16.1077 78.1431 16.136 78.3129 16.1703 78.4684H16.1683C16.1966 78.5998 16.239 78.7271 16.2936 78.8524C16.3239 78.9494 16.3562 79.0403 16.3866 79.107C21.9838 91.338 34.0168 99.556 46.3307 99.556C58.6527 99.556 70.6857 91.3441 76.2122 79.2424C76.2991 79.0848 76.3536 78.9372 76.392 78.8059C76.4082 78.7675 76.4223 78.7311 76.4344 78.6968C76.5314 78.4139 76.5516 78.1714 76.5436 78.1714L76.5415 78.1734C76.5799 77.9774 76.6406 77.6844 76.6406 77.3349ZM72.5568 77.4844C72.5548 77.4945 72.5507 77.5046 72.5487 77.5147C72.5406 77.541 72.5305 77.5693 72.5225 77.6016C67.5496 88.3212 57.0462 95.5147 46.3307 95.5147C35.6414 95.5147 25.1562 88.3434 20.1329 77.5834C20.1228 77.547 20.1127 77.5107 20.1005 77.4763C20.0965 77.442 20.0904 77.4116 20.0884 77.3914C20.0844 77.3692 20.0803 77.3409 20.0763 77.3126L20.0783 77.2864C20.0884 77.2419 20.0965 77.1954 20.1025 77.1469C20.1106 77.1207 20.1187 77.0944 20.1268 77.0661C25.1037 66.3405 35.6151 59.1429 46.3307 59.1429C57.0503 59.1429 67.5597 66.3465 72.5204 77.056C72.5265 77.0762 72.5305 77.0944 72.5366 77.1085C72.5406 77.1267 72.5467 77.1449 72.5528 77.1631C72.5629 77.2439 72.573 77.3227 72.5831 77.3631C72.5709 77.4036 72.5649 77.444 72.5568 77.4844Z" fill="#393939" fill-opacity="0.22"/>
<path d="M46.3306 67.2266C40.7596 67.2266 36.2273 71.7589 36.2273 77.3299C36.2273 82.9008 40.7596 87.4331 46.3306 87.4331C51.9015 87.4331 56.4339 82.9008 56.4339 77.3299C56.4339 71.7589 51.9015 67.2266 46.3306 67.2266ZM46.3306 83.3918C42.9884 83.3918 40.2686 80.672 40.2686 77.3299C40.2686 73.9877 42.9884 71.2679 46.3306 71.2679C49.6728 71.2679 52.3926 73.9877 52.3926 77.3299C52.3926 80.672 49.6728 83.3918 46.3306 83.3918Z" fill="#393939" fill-opacity="0.22"/>
<path d="M475.073 380.108C475.073 379.724 475.007 379.402 474.988 379.366C474.975 379.174 474.911 378.829 474.849 378.646C474.832 378.601 474.813 378.554 474.794 378.507C474.762 378.403 474.725 378.3 474.687 378.219C468.79 365.322 456.097 356.656 443.102 356.656C430.109 356.656 417.417 365.316 411.547 378.143C411.477 378.283 411.428 378.415 411.396 378.533C411.381 378.568 411.367 378.604 411.353 378.639C411.236 378.978 411.234 379.215 411.244 379.155C411.189 379.404 411.14 379.899 411.14 379.899C411.125 380.05 411.125 380.167 411.142 380.319C411.142 380.319 411.191 380.749 411.215 380.839C411.223 380.96 411.253 381.139 411.289 381.304H411.287C411.317 381.442 411.362 381.576 411.419 381.708C411.451 381.811 411.485 381.907 411.517 381.977C417.421 394.878 430.114 403.547 443.102 403.547C456.099 403.547 468.792 394.885 474.621 382.12C474.713 381.954 474.77 381.798 474.811 381.659C474.828 381.619 474.843 381.581 474.855 381.544C474.958 381.246 474.979 380.99 474.97 380.99L474.968 380.992C475.009 380.786 475.073 380.477 475.073 380.108ZM470.765 380.266C470.763 380.276 470.759 380.287 470.757 380.298C470.748 380.325 470.738 380.355 470.729 380.389C465.484 391.696 454.405 399.284 443.102 399.284C431.827 399.284 420.767 391.72 415.469 380.37C415.458 380.332 415.447 380.293 415.435 380.257C415.43 380.221 415.424 380.189 415.422 380.167C415.418 380.144 415.413 380.114 415.409 380.084L415.411 380.057C415.422 380.01 415.43 379.961 415.437 379.91C415.445 379.882 415.454 379.854 415.462 379.824C420.712 368.511 431.799 360.919 443.102 360.919C454.409 360.919 465.494 368.517 470.727 379.814C470.733 379.835 470.738 379.854 470.744 379.869C470.748 379.888 470.755 379.907 470.761 379.927C470.772 380.012 470.782 380.095 470.793 380.138C470.78 380.18 470.774 380.223 470.765 380.266Z" fill="#393939" fill-opacity="0.22"/>
<path d="M443.102 369.445C437.226 369.445 432.445 374.226 432.445 380.102C432.445 385.978 437.226 390.759 443.102 390.759C448.978 390.759 453.759 385.978 453.759 380.102C453.759 374.226 448.978 369.445 443.102 369.445ZM443.102 386.496C439.577 386.496 436.708 383.628 436.708 380.102C436.708 376.577 439.577 373.708 443.102 373.708C446.627 373.708 449.496 376.577 449.496 380.102C449.496 383.628 446.627 386.496 443.102 386.496Z" fill="#393939" fill-opacity="0.22"/>
<path d="M516.829 179.059H450.452C445.625 179.059 441.401 183.283 441.401 188.11V237.591C441.401 242.419 445.625 246.643 450.452 246.643H516.829C521.657 246.643 525.881 242.419 525.881 237.591V188.11C525.881 183.283 521.657 179.059 516.829 179.059ZM483.641 217.075L451.056 185.093H515.623L483.641 217.075ZM516.829 240.608H450.452C448.642 240.608 447.435 239.402 447.435 237.591V189.92L481.227 223.712C481.831 224.316 482.434 224.316 483.641 224.316C484.244 224.316 485.451 224.316 486.055 223.712L519.847 189.317V237.591C519.847 239.402 518.64 240.608 516.829 240.608Z" fill="#393939" fill-opacity="0.2"/>
<path d="M156.8 357.102H110.519C107.153 357.102 104.208 360.047 104.208 363.413V397.913C104.208 401.279 107.153 404.224 110.519 404.224H156.8C160.166 404.224 163.111 401.279 163.111 397.913V363.413C163.111 360.047 160.166 357.102 156.8 357.102ZM133.659 383.608L110.939 361.309H155.959L133.659 383.608ZM156.8 400.017H110.519C109.256 400.017 108.415 399.176 108.415 397.913V364.675L131.976 388.236C132.397 388.657 132.818 388.657 133.659 388.657C134.08 388.657 134.922 388.657 135.342 388.236L158.904 364.254V397.913C158.904 399.176 158.062 400.017 156.8 400.017Z" fill="#393939" fill-opacity="0.2"/>
<path d="M72.9659 349.449C68.2217 348.248 61.5478 349.449 57.2859 356.257C52.9437 349.449 46.3501 348.248 41.6059 349.449C35.9772 350.891 30.59 356.097 31.1526 364.667C31.9568 377.323 42.2493 388.376 56.7229 392.22C56.8837 392.22 56.9639 392.3 57.1248 392.3C57.2051 392.3 57.2857 392.3 57.2857 392.3C57.366 392.3 57.4465 392.3 57.4465 392.3C57.6074 392.3 57.6876 392.3 57.8484 392.22C60.0195 391.66 61.7886 391.179 64.0399 390.138C64.8441 389.737 65.1656 388.776 64.8441 387.975C64.5226 387.174 63.4771 386.854 62.6731 387.174C60.7433 388.055 59.2156 388.536 57.2857 389.017C44.2594 385.492 35.0121 375.64 34.2885 364.427C33.8866 357.779 38.0678 353.615 42.3296 352.573C48.7625 350.891 53.5067 355.457 55.5972 359.862C55.9189 360.503 56.5622 360.823 57.2858 360.743C57.9291 360.823 58.6528 360.503 58.9745 359.862C61.0651 355.457 65.8093 350.891 72.2421 352.573C76.5843 353.695 80.7656 357.78 80.2831 364.427C79.8006 371.876 75.6998 378.684 68.7845 383.65C68.0608 384.131 67.8999 385.172 68.3826 385.893C68.7043 386.293 69.1868 386.534 69.6691 386.534C69.9908 386.534 70.3124 386.454 70.6341 386.213C78.3535 380.687 82.9368 372.998 83.4997 364.587C83.9822 356.177 78.5145 350.891 72.966 349.449H72.9659Z" fill="#393939" fill-opacity="0.2"/>
<path d="M315.132 34.3068V38.8814H301.088C298.453 38.9308 296.246 39.8233 294.469 41.5641C292.688 43.305 291.773 45.4633 291.724 48.0362V57.1882C291.773 59.7638 292.688 61.9194 294.469 63.6602C296.246 65.3984 298.455 66.2935 301.088 66.3402H324.492C327.125 66.2935 329.331 65.3984 331.111 63.6602C332.892 61.9194 333.807 59.7611 333.856 57.1882V48.0362C333.856 46.3667 333.441 44.84 332.611 43.4588C331.768 42.0625 330.584 40.9057 329.173 40.0978V35.0921C331.953 36.0944 334.197 37.7391 335.904 40.0265C337.61 42.3138 338.487 44.9855 338.536 48.0362V57.1882C338.438 61.0983 337.073 64.3385 334.44 66.9141C331.808 69.487 328.49 70.8215 324.492 70.9176H301.088C297.087 70.8215 293.772 69.4897 291.14 66.9141C288.507 64.3385 287.142 61.0983 287.044 57.1882V48.0362C287.142 44.1261 288.507 40.8859 291.14 38.3103C293.772 35.7346 297.087 34.4001 301.088 34.3068H315.132ZM296.402 52.6108V48.0362H310.446C313.081 47.9868 315.287 47.0943 317.065 45.3535C318.845 43.6126 319.76 41.4543 319.809 38.8814V29.7294C319.76 27.1538 318.845 24.9982 317.065 23.2574C315.287 21.5192 313.078 20.6241 310.446 20.5774H287.044C284.411 20.6241 282.205 21.5192 280.425 23.2574C278.644 24.9982 277.73 27.1565 277.68 29.7294V38.8814C277.68 40.5509 278.095 42.0776 278.926 43.4588C279.753 44.84 280.9 45.9603 282.363 46.8198V51.8255C279.535 50.8233 277.279 49.1565 275.597 46.8198C273.925 44.5141 273.016 41.7378 273 38.8842V29.7294C273.098 25.8193 274.464 22.5791 277.096 20.0035C279.728 17.4306 283.046 16.0961 287.044 16H310.448C314.449 16.0961 317.764 17.4279 320.396 20.0035C323.029 22.5791 324.394 25.8193 324.492 29.7294V38.8814C324.394 42.7916 323.029 46.0317 320.396 48.6073C317.764 51.183 314.449 52.5175 310.448 52.6108H296.405H296.402Z" fill="#393939" fill-opacity="0.2"/>
<path d="M393.774 232.039V234.548H386.183C384.758 234.575 383.566 235.064 382.605 236.019C381.642 236.974 381.148 238.157 381.121 239.568V244.587C381.148 246 381.642 247.182 382.605 248.136C383.566 249.089 384.76 249.58 386.183 249.606H398.834C400.257 249.58 401.449 249.089 402.412 248.136C403.374 247.182 403.868 245.998 403.895 244.587V239.568C403.895 238.653 403.671 237.815 403.222 237.058C402.766 236.292 402.127 235.658 401.364 235.215V232.47C402.866 233.019 404.08 233.921 405.002 235.176C405.925 236.43 406.398 237.895 406.425 239.568V244.587C406.372 246.731 405.634 248.508 404.211 249.921C402.788 251.332 400.995 252.063 398.834 252.116H386.183C384.02 252.063 382.228 251.333 380.805 249.921C379.382 248.508 378.644 246.731 378.591 244.587V239.568C378.644 237.424 379.382 235.647 380.805 234.235C382.228 232.822 384.02 232.09 386.183 232.039H393.774ZM383.65 242.077V239.568H391.241C392.665 239.541 393.858 239.052 394.819 238.097C395.781 237.142 396.276 235.959 396.302 234.548V229.529C396.276 228.117 395.781 226.935 394.819 225.98C393.858 225.027 392.664 224.536 391.241 224.51H378.591C377.168 224.536 375.976 225.027 375.013 225.98C374.051 226.935 373.556 228.118 373.53 229.529V234.548C373.53 235.463 373.754 236.301 374.203 237.058C374.65 237.815 375.27 238.43 376.061 238.901V241.646C374.532 241.097 373.313 240.183 372.404 238.901C371.5 237.637 371.009 236.114 371 234.549V229.529C371.053 227.385 371.791 225.608 373.214 224.195C374.637 222.785 376.43 222.053 378.591 222H391.242C393.405 222.053 395.197 222.783 396.62 224.195C398.043 225.608 398.781 227.385 398.834 229.529V234.548C398.781 236.692 398.043 238.469 396.62 239.881C395.197 241.294 393.405 242.026 391.242 242.077H383.651H383.65Z" fill="#393939" fill-opacity="0.2"/>
<path d="M509.002 332.564C502.59 332.564 497.376 327.35 497.376 320.938C497.376 314.527 502.59 309.312 509.002 309.312C515.413 309.312 520.628 314.527 520.628 320.938C520.628 327.35 515.413 332.564 509.002 332.564ZM509.002 313.188C504.727 313.188 501.251 316.664 501.251 320.938C501.251 325.213 504.727 328.689 509.002 328.689C513.276 328.689 516.752 325.213 516.752 320.938C516.752 316.664 513.276 313.188 509.002 313.188Z" fill="#393939" fill-opacity="0.22"/>
<path d="M530.316 342.253H487.688C484.483 342.253 481.875 339.645 481.875 336.44V305.438C481.875 302.233 484.483 299.625 487.688 299.625H493.501C494.57 299.625 495.438 300.493 495.438 301.563C495.438 302.632 494.57 303.5 493.501 303.5H487.688C486.62 303.5 485.75 304.37 485.75 305.438V336.44C485.75 337.509 486.62 338.377 487.688 338.377H530.316C531.385 338.377 532.253 337.509 532.253 336.44V305.438C532.253 304.37 531.385 303.5 530.316 303.5H509.002C507.932 303.5 507.064 302.632 507.064 301.563C507.064 300.493 507.932 299.625 509.002 299.625H530.316C533.52 299.625 536.128 302.233 536.128 305.438V336.44C536.128 339.645 533.52 342.253 530.316 342.253Z" fill="#393939" fill-opacity="0.22"/>
<path d="M524.503 308.345C524.503 309.115 524.809 309.855 525.354 310.4C525.899 310.945 526.638 311.251 527.409 311.251C528.18 311.251 528.919 310.945 529.464 310.4C530.009 309.855 530.316 309.115 530.316 308.345C530.316 307.574 530.009 306.835 529.464 306.289C528.919 305.744 528.18 305.438 527.409 305.438C526.638 305.438 525.899 305.744 525.354 306.289C524.809 306.835 524.503 307.574 524.503 308.345ZM507.064 295.75C507.064 296.82 506.196 297.688 505.127 297.688H497.376C496.307 297.688 495.438 296.82 495.438 295.75C495.438 294.681 496.307 293.812 497.376 293.812H505.127C506.196 293.812 507.064 294.681 507.064 295.75Z" fill="#393939" fill-opacity="0.22"/>
<path d="M243.302 128.934C234.967 128.934 228.189 122.155 228.189 113.82C228.189 105.485 234.967 98.707 243.302 98.707C251.637 98.707 258.416 105.485 258.416 113.82C258.416 122.155 251.637 128.934 243.302 128.934ZM243.302 103.745C237.746 103.745 233.227 108.264 233.227 113.82C233.227 119.377 237.746 123.896 243.302 123.896C248.859 123.896 253.378 119.377 253.378 113.82C253.378 108.264 248.859 103.745 243.302 103.745Z" fill="#393939" fill-opacity="0.22"/>
<path d="M271.01 141.529H215.595C211.428 141.529 208.038 138.139 208.038 133.972V93.67C208.038 89.5037 211.428 86.1133 215.595 86.1133H223.151C224.542 86.1133 225.67 87.2417 225.67 88.6322C225.67 90.0226 224.542 91.1511 223.151 91.1511H215.595C214.207 91.1511 213.076 92.2821 213.076 93.67V133.972C213.076 135.363 214.207 136.491 215.595 136.491H271.01C272.401 136.491 273.529 135.363 273.529 133.972V93.67C273.529 92.2821 272.401 91.1511 271.01 91.1511H243.302C241.912 91.1511 240.784 90.0226 240.784 88.6322C240.784 87.2417 241.912 86.1133 243.302 86.1133H271.01C275.177 86.1133 278.567 89.5037 278.567 93.67V133.972C278.567 138.139 275.177 141.529 271.01 141.529Z" fill="#393939" fill-opacity="0.22"/>
<path d="M263.454 97.4504C263.454 98.4524 263.852 99.4135 264.56 100.122C265.269 100.831 266.23 101.229 267.232 101.229C268.234 101.229 269.195 100.831 269.904 100.122C270.612 99.4135 271.01 98.4524 271.01 97.4504C271.01 96.4483 270.612 95.4872 269.904 94.7787C269.195 94.0701 268.234 93.672 267.232 93.672C266.23 93.672 265.269 94.0701 264.56 94.7787C263.852 95.4872 263.454 96.4483 263.454 97.4504ZM240.784 81.0775C240.784 82.4679 239.655 83.5964 238.265 83.5964H228.189C226.799 83.5964 225.67 82.4679 225.67 81.0775C225.67 79.6871 226.799 78.5586 228.189 78.5586H238.265C239.655 78.5586 240.784 79.6871 240.784 81.0775Z" fill="#393939" fill-opacity="0.22"/>
<path d="M58.0856 250.771H41.1199V233.822C41.1515 233.5 41.1117 233.175 41.0033 232.871C40.8948 232.566 40.7205 232.289 40.4926 232.06C40.2648 231.83 39.9892 231.654 39.6853 231.544C39.3815 231.433 39.057 231.391 38.735 231.42H24.222C23.8966 231.389 23.5684 231.43 23.2603 231.539C22.9522 231.648 22.6716 231.823 22.4381 232.052C22.2046 232.28 22.0238 232.557 21.9083 232.863C21.7928 233.169 21.7453 233.496 21.7693 233.822V250.771H4.87138C4.54599 250.74 4.21781 250.781 3.90971 250.89C3.60162 250.999 3.32102 251.174 3.08751 251.402C2.85399 251.631 2.67317 251.908 2.55766 252.214C2.44215 252.519 2.39472 252.847 2.41869 253.173V267.686C2.39418 268.013 2.44095 268.342 2.55579 268.65C2.67062 268.958 2.85079 269.237 3.08388 269.469C3.31698 269.7 3.59747 269.878 3.90605 269.991C4.21463 270.104 4.54396 270.148 4.87138 270.121H21.7693V287.036C21.7448 287.364 21.7916 287.693 21.9064 288.001C22.0212 288.308 22.2014 288.588 22.4345 288.819C22.6676 289.051 22.9481 289.229 23.2567 289.342C23.5652 289.454 23.8946 289.499 24.222 289.472H38.735C39.0591 289.498 39.3849 289.452 39.6894 289.338C39.9939 289.224 40.2697 289.044 40.4972 288.812C40.7247 288.58 40.8983 288.3 41.006 287.993C41.1136 287.687 41.1525 287.36 41.1199 287.036V270.121H58.0856C58.4097 270.147 58.7356 270.101 59.0401 269.987C59.3446 269.873 59.6203 269.694 59.8478 269.461C60.0753 269.229 60.249 268.95 60.3566 268.643C60.4642 268.336 60.5031 268.009 60.4706 267.686V253.173C60.5022 252.851 60.4623 252.526 60.3539 252.221C60.2454 251.917 60.0711 251.64 59.8433 251.411C59.6155 251.181 59.3398 251.005 59.0359 250.894C58.7321 250.784 58.4076 250.741 58.0856 250.771ZM55.6329 265.284H36.2823V284.634H26.607V265.284H7.25635V255.608H26.607V236.258H36.2823V255.608H55.6329V265.284Z" fill="#393939" fill-opacity="0.2"/>
<path d="M408.425 290.262L340.885 314.816L383.871 357.802L408.425 290.262ZM397.132 301.554L381.145 345.526L369.853 334.237L386.937 311.75L364.45 328.834L353.16 317.541L397.132 301.554Z" fill="#393939" fill-opacity="0.22"/>
<path d="M184.125 182.109L130.425 201.632L164.602 235.809L184.125 182.109ZM175.146 191.088L162.435 226.049L153.457 217.073L167.04 199.194L149.161 212.777L140.185 203.799L175.146 191.088Z" fill="#393939" fill-opacity="0.22"/>
<path d="M135.59 307.312C135.495 307.181 125.999 293.947 125.999 284.193C125.999 270.642 119.872 263.697 112.911 261.104V259.871C112.911 255.613 109.446 252.148 105.188 252.148C100.93 252.148 97.4654 255.613 97.4654 259.871V261.205C96.5979 261.841 96.1705 262.958 96.5155 264.039C96.948 265.393 98.3999 266.134 99.7513 265.707C101.18 265.251 102.722 265.02 104.328 265.02H106.048C115.318 265.02 120.85 272.186 120.85 284.19C120.85 292.881 126.714 303.127 129.713 307.801C125.098 309.907 114.988 313.931 105.188 313.931C95.4137 313.931 85.284 309.879 80.6658 307.765C83.6673 303.101 89.5264 292.881 89.5264 284.19C89.5264 279.168 90.4608 275.003 92.304 271.808C93.0145 270.575 92.5923 269.002 91.3618 268.292C90.1236 267.579 88.5559 268.003 87.8454 269.234C85.544 273.219 84.3778 278.251 84.3778 284.19C84.3778 293.942 74.884 307.137 74.7887 307.269C74.5732 307.566 74.4236 307.906 74.3499 308.266C74.2762 308.626 74.2801 308.998 74.3614 309.356C74.5261 310.077 74.9947 310.697 75.6485 311.048C76.1042 311.295 84.2877 315.655 94.4355 317.846C96.1577 323.188 100.374 326.802 105.188 326.802C110.002 326.802 114.219 323.188 115.938 317.849C126.084 315.668 134.267 311.333 134.723 311.089C135.377 310.739 135.85 310.121 136.015 309.397C136.18 308.674 136.025 307.915 135.59 307.312ZM104.328 259.871C103.744 259.871 103.186 259.951 102.614 259.997V259.871C102.614 258.453 103.77 257.297 105.188 257.297C106.607 257.297 107.763 258.453 107.763 259.871V259.946C107.192 259.897 106.62 259.872 106.048 259.871H104.328ZM105.188 321.654C103.391 321.654 101.718 320.575 100.524 318.814C102.068 318.976 103.628 319.079 105.188 319.079C106.748 319.079 108.308 318.976 109.853 318.814C108.658 320.577 106.983 321.654 105.188 321.654Z" fill="#393939" fill-opacity="0.22"/>
<path d="M495.123 130.178C495.039 130.062 486.665 118.393 486.665 109.793C486.665 97.8452 481.263 91.7213 475.126 89.4356V88.3484C475.126 84.5942 472.071 81.5391 468.317 81.5391C464.562 81.5391 461.507 84.5942 461.507 88.3484V89.5241C460.742 90.0848 460.365 91.0699 460.67 92.0232C461.051 93.2171 462.331 93.8708 463.523 93.494C464.782 93.0922 466.142 92.888 467.558 92.888H469.075C477.248 92.888 482.126 99.207 482.126 109.791C482.126 117.454 487.296 126.488 489.941 130.609C485.871 132.466 476.958 136.014 468.317 136.014C459.698 136.014 450.767 132.441 446.695 130.578C449.341 126.465 454.507 117.454 454.507 109.791C454.507 105.363 455.331 101.69 456.956 98.8734C457.583 97.7861 457.21 96.3993 456.126 95.7729C455.034 95.1441 453.651 95.5186 453.025 96.6036C450.996 100.117 449.968 104.555 449.968 109.791C449.968 118.389 441.597 130.024 441.513 130.14C441.323 130.402 441.191 130.702 441.126 131.019C441.061 131.337 441.064 131.664 441.136 131.98C441.281 132.616 441.694 133.163 442.271 133.472C442.673 133.69 449.888 137.535 458.836 139.466C460.354 144.176 464.072 147.363 468.317 147.363C472.561 147.363 476.279 144.176 477.795 139.468C486.74 137.546 493.956 133.724 494.358 133.508C494.934 133.199 495.352 132.655 495.497 132.017C495.642 131.379 495.506 130.709 495.123 130.178ZM467.558 88.3484C467.043 88.3484 466.551 88.4188 466.047 88.4596V88.3484C466.047 87.0978 467.066 86.0786 468.317 86.0786C469.567 86.0786 470.586 87.0978 470.586 88.3484V88.4142C470.084 88.371 469.579 88.349 469.075 88.3484H467.558ZM468.317 142.823C466.732 142.823 465.257 141.872 464.204 140.32C465.566 140.463 466.941 140.553 468.317 140.553C469.692 140.553 471.067 140.463 472.429 140.32C471.376 141.874 469.899 142.823 468.317 142.823Z" fill="#393939" fill-opacity="0.22"/>
<path d="M359.542 121.945H347.116V109.532C347.139 109.296 347.11 109.059 347.031 108.835C346.951 108.612 346.824 108.41 346.657 108.241C346.49 108.073 346.288 107.944 346.065 107.863C345.843 107.782 345.605 107.751 345.369 107.773H334.74C334.502 107.75 334.262 107.78 334.036 107.86C333.81 107.94 333.605 108.068 333.434 108.236C333.263 108.403 333.13 108.606 333.046 108.83C332.961 109.054 332.926 109.293 332.944 109.532V121.945H320.568C320.33 121.923 320.089 121.952 319.864 122.032C319.638 122.112 319.432 122.24 319.261 122.408C319.09 122.575 318.958 122.778 318.873 123.002C318.789 123.226 318.754 123.466 318.772 123.704V134.334C318.754 134.574 318.788 134.814 318.872 135.04C318.956 135.265 319.088 135.47 319.259 135.639C319.43 135.809 319.635 135.939 319.861 136.022C320.087 136.105 320.328 136.137 320.568 136.118H332.944V148.506C332.926 148.746 332.96 148.987 333.044 149.212C333.128 149.438 333.26 149.642 333.431 149.812C333.602 149.981 333.807 150.112 334.033 150.194C334.259 150.277 334.5 150.309 334.74 150.29H345.369C345.607 150.309 345.845 150.275 346.068 150.192C346.292 150.108 346.493 149.977 346.66 149.806C346.827 149.636 346.954 149.432 347.033 149.207C347.112 148.982 347.14 148.743 347.116 148.506V136.118H359.542C359.779 136.136 360.018 136.103 360.241 136.019C360.464 135.936 360.666 135.804 360.832 135.634C360.999 135.464 361.126 135.259 361.205 135.035C361.284 134.81 361.312 134.571 361.288 134.334V123.704C361.312 123.469 361.282 123.231 361.203 123.008C361.124 122.785 360.996 122.582 360.829 122.414C360.662 122.246 360.46 122.117 360.238 122.036C360.015 121.955 359.778 121.924 359.542 121.945ZM357.745 132.574H343.573V146.747H336.487V132.574H322.315V125.488H336.487V111.316H343.573V125.488H357.745V132.574Z" fill="#393939" fill-opacity="0.2"/>
<path d="M456.542 278.575H446.745V268.787C446.763 268.601 446.74 268.414 446.678 268.238C446.615 268.062 446.515 267.902 446.383 267.77C446.251 267.637 446.092 267.535 445.917 267.472C445.741 267.408 445.554 267.383 445.368 267.4H436.987C436.799 267.383 436.61 267.406 436.432 267.469C436.254 267.532 436.092 267.633 435.957 267.765C435.822 267.897 435.718 268.057 435.651 268.234C435.584 268.41 435.557 268.599 435.571 268.787V278.575H425.813C425.625 278.557 425.436 278.58 425.258 278.643C425.08 278.706 424.918 278.807 424.783 278.939C424.648 279.071 424.544 279.231 424.477 279.408C424.41 279.584 424.383 279.773 424.397 279.962V288.342C424.382 288.532 424.409 288.722 424.476 288.899C424.542 289.077 424.646 289.238 424.781 289.372C424.915 289.506 425.077 289.609 425.256 289.674C425.434 289.739 425.624 289.764 425.813 289.749H435.571V299.517C435.557 299.706 435.584 299.896 435.65 300.074C435.716 300.251 435.82 300.413 435.955 300.546C436.09 300.68 436.252 300.783 436.43 300.848C436.608 300.913 436.798 300.939 436.987 300.923H445.368C445.555 300.938 445.743 300.912 445.919 300.846C446.095 300.78 446.254 300.676 446.386 300.542C446.517 300.408 446.617 300.247 446.679 300.069C446.742 299.892 446.764 299.703 446.745 299.517V289.749H456.542C456.729 289.764 456.918 289.737 457.093 289.671C457.269 289.606 457.429 289.502 457.56 289.368C457.691 289.234 457.792 289.072 457.854 288.895C457.916 288.718 457.938 288.529 457.92 288.342V279.962C457.938 279.776 457.915 279.588 457.852 279.412C457.79 279.236 457.689 279.077 457.557 278.944C457.426 278.812 457.267 278.71 457.091 278.646C456.916 278.582 456.728 278.558 456.542 278.575ZM455.126 286.955H443.952V298.13H438.364V286.955H427.19V281.368H438.364V270.194H443.952V281.368H455.126V286.955Z" fill="#393939" fill-opacity="0.2"/>
<path d="M236.543 358.571H226.745V348.783C226.764 348.598 226.741 348.41 226.678 348.234C226.615 348.058 226.515 347.898 226.383 347.766C226.252 347.633 226.092 347.532 225.917 347.468C225.742 347.404 225.554 347.379 225.368 347.396H216.987C216.8 347.379 216.61 347.402 216.432 347.465C216.254 347.528 216.092 347.629 215.957 347.761C215.823 347.893 215.718 348.053 215.651 348.23C215.585 348.406 215.557 348.595 215.571 348.783V358.571H205.813C205.625 358.553 205.436 358.576 205.258 358.639C205.08 358.702 204.918 358.803 204.783 358.935C204.648 359.067 204.544 359.227 204.477 359.404C204.41 359.58 204.383 359.769 204.397 359.958V368.338C204.383 368.528 204.41 368.718 204.476 368.895C204.542 369.073 204.646 369.234 204.781 369.368C204.916 369.502 205.078 369.605 205.256 369.67C205.434 369.735 205.624 369.76 205.813 369.745H215.571V379.513C215.557 379.702 215.584 379.892 215.65 380.07C215.717 380.247 215.821 380.409 215.955 380.542C216.09 380.676 216.252 380.779 216.43 380.844C216.608 380.909 216.798 380.935 216.987 380.919H225.368C225.555 380.934 225.744 380.908 225.919 380.842C226.095 380.776 226.254 380.672 226.386 380.538C226.517 380.404 226.617 380.243 226.68 380.065C226.742 379.888 226.764 379.7 226.745 379.513V369.745H236.543C236.73 369.76 236.918 369.733 237.094 369.668C237.27 369.602 237.429 369.498 237.56 369.364C237.691 369.23 237.792 369.068 237.854 368.891C237.916 368.714 237.939 368.525 237.92 368.338V359.958C237.938 359.772 237.915 359.584 237.852 359.408C237.79 359.233 237.689 359.073 237.558 358.94C237.426 358.808 237.267 358.706 237.091 358.642C236.916 358.578 236.728 358.554 236.543 358.571ZM235.126 366.951H223.952V378.126H218.365V366.951H207.19V361.364H218.365V350.19H223.952V361.364H235.126V366.951Z" fill="#393939" fill-opacity="0.2"/>
<path d="M150.905 61.3295H138.958V49.3938C138.98 49.1672 138.952 48.9385 138.876 48.724C138.799 48.5095 138.676 48.3144 138.516 48.1529C138.356 47.9913 138.161 47.8671 137.947 47.7892C137.733 47.7114 137.505 47.6817 137.278 47.7023H127.058C126.829 47.6807 126.597 47.7092 126.381 47.7861C126.164 47.8629 125.966 47.9861 125.802 48.1472C125.637 48.3082 125.51 48.5032 125.428 48.7185C125.347 48.9338 125.314 49.1643 125.331 49.3938V61.3295H113.431C113.201 61.3079 112.97 61.3364 112.753 61.4133C112.536 61.4901 112.339 61.6133 112.174 61.7744C112.01 61.9354 111.883 62.1304 111.801 62.3457C111.72 62.561 111.686 62.7915 111.703 63.021V73.2414C111.686 73.4721 111.719 73.7038 111.8 73.9206C111.881 74.1373 112.008 74.334 112.172 74.497C112.336 74.66 112.533 74.7855 112.751 74.8649C112.968 74.9443 113.2 74.9756 113.431 74.9567H125.331V86.8686C125.313 87.0993 125.346 87.331 125.427 87.5478C125.508 87.7645 125.635 87.9612 125.799 88.1242C125.963 88.2872 126.161 88.4127 126.378 88.4921C126.595 88.5715 126.827 88.6028 127.058 88.5839H137.278C137.506 88.6021 137.736 88.5698 137.95 88.4895C138.165 88.4092 138.359 88.2827 138.519 88.1191C138.679 87.9555 138.802 87.7587 138.877 87.5426C138.953 87.3265 138.981 87.0965 138.958 86.8686V74.9567H150.905C151.134 74.9749 151.363 74.9426 151.578 74.8623C151.792 74.782 151.986 74.6555 152.146 74.4919C152.307 74.3283 152.429 74.1315 152.505 73.9154C152.58 73.6993 152.608 73.4693 152.585 73.2414V63.021C152.607 62.7944 152.579 62.5657 152.503 62.3512C152.426 62.1366 152.304 61.9416 152.143 61.7801C151.983 61.6185 151.789 61.4943 151.575 61.4164C151.361 61.3386 151.132 61.3089 150.905 61.3295ZM149.178 71.5499H135.551V85.1771H128.737V71.5499H115.11V64.7363H128.737V51.1091H135.551V64.7363H149.178V71.5499Z" fill="#393939" fill-opacity="0.2"/>
<path d="M199.161 297.059V300.822H187.774C185.637 300.862 183.848 301.597 182.407 303.029C180.963 304.461 180.222 306.236 180.182 308.352V315.881C180.222 317.999 180.963 319.772 182.407 321.204C183.848 322.634 185.639 323.37 187.774 323.409H206.751C208.885 323.37 210.674 322.634 212.117 321.204C213.561 319.772 214.303 317.997 214.343 315.881V308.352C214.343 306.979 214.006 305.723 213.333 304.587C212.65 303.439 211.69 302.487 210.545 301.822V297.705C212.799 298.529 214.619 299.882 216.003 301.764C217.387 303.645 218.098 305.843 218.137 308.352V315.881C218.058 319.097 216.951 321.762 214.816 323.881C212.682 325.997 209.992 327.095 206.751 327.174H187.774C184.53 327.095 181.842 326 179.708 323.881C177.574 321.762 176.467 319.097 176.387 315.881V308.352C176.467 305.136 177.574 302.471 179.708 300.352C181.842 298.233 184.53 297.136 187.774 297.059H199.161ZM183.974 312.115V308.352H195.361C197.498 308.312 199.287 307.578 200.728 306.146C202.172 304.714 202.914 302.938 202.953 300.822V293.294C202.914 291.175 202.172 289.402 200.728 287.97C199.287 286.54 197.496 285.804 195.361 285.765H176.387C174.253 285.804 172.464 286.54 171.02 287.97C169.576 289.402 168.835 291.177 168.795 293.294V300.822C168.795 302.195 169.131 303.451 169.805 304.587C170.475 305.723 171.405 306.645 172.592 307.352V311.469C170.298 310.645 168.469 309.274 167.106 307.352C165.75 305.455 165.013 303.171 165 300.824V293.294C165.08 290.077 166.187 287.412 168.321 285.293C170.455 283.177 173.146 282.079 176.387 282H195.364C198.607 282.079 201.295 283.175 203.429 285.293C205.564 287.412 206.671 290.077 206.751 293.294V300.822C206.671 304.038 205.564 306.703 203.429 308.822C201.295 310.941 198.607 312.039 195.364 312.115H183.977H183.974Z" fill="#393939" fill-opacity="0.2"/>
<path d="M214.081 64.3555C213.733 64.3555 213.392 64.2666 213.088 64.0974L197.641 55.5292L182.162 64.0442C181.476 64.4231 180.632 64.374 179.993 63.9213C179.679 63.6994 179.434 63.3937 179.285 63.0391C179.137 62.6845 179.091 62.2953 179.153 61.9159L182.154 43.6898L169.579 30.7546C169.051 30.2097 168.864 29.415 169.102 28.694C169.217 28.3392 169.428 28.0228 169.71 27.7787C169.992 27.5347 170.336 27.3724 170.704 27.3093L180.63 25.6071C181.758 25.4187 182.805 26.1663 182.996 27.2806C183.186 28.3949 182.438 29.4539 181.322 29.6464L175.23 30.6911L185.814 41.578C186.267 42.045 186.472 42.6984 186.367 43.3375L183.883 58.4235L196.66 51.3936C197.277 51.0536 198.026 51.0536 198.641 51.3977L211.39 58.4686L208.956 43.3764C208.852 42.7353 209.061 42.0819 209.513 41.619L220.054 30.8488L205.609 28.6202C204.933 28.5157 204.356 28.0815 204.065 27.4629L197.715 13.8681L191.31 27.4281C190.826 28.4522 189.606 28.8885 188.581 28.4051C187.559 27.9217 187.121 26.7009 187.604 25.6767L195.871 8.1737C196.211 7.45678 196.933 7 197.723 7H197.727C198.116 7.00096 198.497 7.11261 198.825 7.32189C199.153 7.53118 199.414 7.82947 199.579 8.18189L207.311 24.7366L224.616 27.4076C225.376 27.5243 226.005 28.0569 226.248 28.7841C226.49 29.5112 226.304 30.3162 225.769 30.8631L213.164 43.7431L216.103 61.9774C216.228 62.7517 215.898 63.53 215.257 63.9807C214.907 64.2326 214.495 64.3555 214.081 64.3555Z" fill="#393939" fill-opacity="0.22"/>
<defs>
<filter id="filter0_i" x="205.622" y="167.797" width="190.6" height="194.696" filterUnits="userSpaceOnUse" color-interpolation-filters="sRGB">
<feFlood flood-opacity="0" result="BackgroundImageFix"/>
<feBlend mode="normal" in="SourceGraphic" in2="BackgroundImageFix" result="shape"/>
<feColorMatrix in="SourceAlpha" type="matrix" values="0 0 0 0 0 0 0 0 0 0 0 0 0 0 0 0 0 0 127 0" result="hardAlpha"/>
<feOffset dx="48.5255" dy="25.5397"/>
<feGaussianBlur stdDeviation="70.2343"/>
<feComposite in2="hardAlpha" operator="arithmetic" k2="-1" k3="1"/>
<feColorMatrix type="matrix" values="0 0 0 0 0.281875 0 0 0 0 0.825 0 0 0 0 0.69465 0 0 0 0.05 0"/>
<feBlend mode="normal" in2="shape" result="effect1_innerShadow"/>
</filter>
</defs>
</svg>
