<svg width="268" height="218" viewBox="0 0 268 218" fill="none" xmlns="http://www.w3.org/2000/svg">
<path d="M165.298 71.5947C150.875 80.2097 119.913 81.2107 97.198 70.9627C74.4828 60.7147 32.5444 62.0377 21.185 80.8807C9.82549 99.7247 35.1644 118.236 25.9889 131.789C16.8133 145.342 -13.7655 164.513 7.20179 187.651C28.1691 210.79 54.7898 204.894 70.8103 202.57C102.449 197.982 142.151 235.47 186.818 207.158C212.556 190.845 250.885 219.129 265.82 184.016C278.141 155.044 233.617 144.338 247.036 124.846C261.305 104.116 258.565 79.5527 243.104 67.6577C228.704 56.5767 190.198 56.7187 165.298 71.5947Z" fill="url(#paint0_linear)"/>
<path d="M111.193 125.972L130.573 145.376L165.185 127.782L175.331 121.215L186.883 120.43L206.954 107.05L219.184 145.312L233.09 144.215C233.09 144.215 233.64 140.243 227.001 139.746C230.739 136.008 232.333 130.207 232.333 130.207C232.333 130.207 231.961 126.05 223.142 125.567C224.204 122.993 224.885 121.818 224.885 121.818L243.406 94.9377L186.78 73.1797L111.193 125.972Z" fill="url(#paint1_linear)"/>
<path d="M32.8837 64.1011C32.8837 64.1011 32.8056 63.8991 32.6991 64.1161C31.7406 66.0651 23.0608 87.1761 22.3721 103.471C22.3721 103.471 20.9237 112.832 33.0612 112.708C43.1929 112.605 42.9231 103.975 42.8876 101.068C42.7527 89.2751 32.8837 64.1011 32.8837 64.1011Z" fill="url(#paint2_linear)"/>
<path d="M32.6068 123.073C32.4116 123.073 32.2518 122.913 32.2518 122.718V69.7769C32.2518 69.5819 32.4116 69.4219 32.6068 69.4219C32.8021 69.4219 32.9618 69.5819 32.9618 69.7769V122.718C32.9618 122.917 32.8021 123.073 32.6068 123.073Z" fill="url(#paint3_linear)"/>
<path d="M210.685 48.923C210.685 48.923 210.636 48.791 210.568 48.933C209.951 50.186 204.363 63.783 203.919 74.273C203.919 74.273 202.985 80.301 210.803 80.223C217.327 80.159 217.153 74.6 217.129 72.729C217.04 65.132 210.685 48.923 210.685 48.923Z" fill="url(#paint4_linear)"/>
<path d="M210.508 86.8966C210.38 86.8966 210.281 86.7936 210.281 86.6686V52.5786C210.281 52.4506 210.384 52.3516 210.508 52.3516C210.632 52.3516 210.735 52.4536 210.735 52.5786V86.6656C210.735 86.7936 210.632 86.8966 210.508 86.8966Z" fill="url(#paint5_linear)"/>
<path d="M235.571 111.903C238.298 111.903 240.509 109.693 240.509 106.965C240.509 104.238 238.298 102.027 235.571 102.027C232.844 102.027 230.633 104.238 230.633 106.965C230.633 109.693 232.844 111.903 235.571 111.903Z" fill="url(#paint6_linear)"/>
<path d="M235.589 119.174C235.503 119.174 235.436 119.106 235.436 119.021V103.422C235.436 103.337 235.503 103.27 235.589 103.27C235.674 103.27 235.741 103.337 235.741 103.422V119.021C235.741 119.106 235.67 119.174 235.589 119.174Z" fill="url(#paint7_linear)"/>
<path d="M188.693 82.3555C197.962 93.2295 197.969 109.201 188.37 118.945C178.771 128.69 163.037 128.683 152.327 119.272L188.693 82.3555Z" fill="url(#paint8_linear)"/>
<path d="M187.255 86.3281C195.31 95.8601 194.895 110.23 186.002 119.258C177.11 128.286 162.956 128.704 153.566 120.529L187.255 86.3281Z" fill="url(#paint9_linear)"/>
<path d="M193.734 48.308C186.524 48.884 178.327 45.823 173.414 40.832L157.262 24.435C142.685 9.63832 120.292 7.62552 103.586 18.3891L97.32 12.0275C93.383 8.03023 87.195 7.83142 83.4961 11.5837C79.8005 15.3361 79.9958 21.6196 83.9327 25.617L90.198 31.978C79.5946 48.937 81.5791 71.675 96.155 86.471L112.308 102.868C119.873 110.551 122.937 126.11 115.372 133.789L124.633 143.835L126.05 144.908C127.832 146.253 130.338 146.072 131.907 144.478L212.72 62.43C215.318 59.793 215.318 55.554 212.72 52.916L208.027 48.152C205.73 45.82 202.226 45.213 199.251 46.576C197.401 47.417 195.353 48.177 193.734 48.308Z" fill="url(#paint10_linear)"/>
<path d="M191.682 50.782C184.401 51.876 175.736 48.855 170.67 43.711L155.053 27.856C140.96 13.55 119.308 11.6046 103.152 22.01L97.093 15.8575C93.287 11.9915 87.302 11.7998 83.7268 15.4315C80.152 19.0596 80.3401 25.134 84.1493 29L90.209 35.152C79.9567 51.549 81.8737 73.534 95.967 87.841L111.584 103.695C118.9 111.122 121.861 126.167 114.544 133.593L124.296 143.494C126.124 145.351 129.117 145.351 130.945 143.494L208.509 64.752C211.108 62.114 211.108 57.875 208.509 55.238L204.384 51.052C202.055 48.688 198.491 48.063 195.488 49.472C194.178 50.087 192.804 50.612 191.682 50.782Z" fill="url(#paint11_linear)"/>
<path d="M165.574 107.6C157.033 104.479 150.856 93.258 151.058 83.911L151.562 60.694C152.006 40.192 138.544 22.666 119.939 17.405L120.063 10.7487C120.187 4.948 115.366 0.137799 109.289 0.00289888C103.211 -0.132001 98.184 4.4581 98.056 10.2588L97.907 17.0713C79.387 21.7076 65.471 38.474 65.0308 58.759L64.5267 81.976C64.3279 91.06 58.0373 101.643 49.7303 104.742C49.3717 104.877 48.928 105.001 48.4523 105.115C46.1874 105.658 44.565 107.653 44.5153 109.982L44.3236 118.832C44.2491 122.279 46.9826 125.137 50.4332 125.215L163.025 127.732C166.607 127.814 169.575 124.974 169.653 121.392L169.82 113.631C169.88 110.926 168.165 108.523 165.617 107.614C165.602 107.61 165.588 107.607 165.574 107.6Z" fill="url(#paint12_linear)"/>
<path d="M133.082 126.41C131.737 140.581 120.175 151.508 106.351 151.199C92.527 150.891 81.4513 139.456 80.72 125.238L133.082 126.41Z" fill="url(#paint13_linear)"/>
<path d="M128.503 126.963C127.285 139.463 116.774 149.094 104.2 148.81C91.626 148.526 81.54 138.437 80.869 125.898L128.503 126.963Z" fill="url(#paint14_linear)"/>
<path d="M160.918 108.027C152.913 104.786 147.172 94.189 147.364 85.332L147.85 62.918C148.287 42.764 134.804 25.586 116.334 20.8571L116.532 11.7159C116.646 6.47253 112.549 2.12733 107.384 2.01023C102.219 1.89303 97.937 6.05363 97.824 11.297L97.625 20.4382C78.9662 24.336 64.752 40.893 64.3118 61.047L63.8255 83.461C63.6373 92.063 57.7905 102.056 49.9982 105.262C49.5687 105.439 49.0149 105.599 48.4291 105.745C46.1749 106.291 44.5525 108.258 44.5028 110.58L44.3005 119.895C44.2401 122.756 46.5086 125.128 49.3699 125.192L158.696 127.638C162.278 127.719 165.245 124.879 165.324 121.297L165.48 114.172C165.54 111.46 163.829 109.032 161.262 108.152C161.138 108.113 161.025 108.07 160.918 108.027Z" fill="url(#paint15_linear)"/>
<path d="M130.058 74.0542C127.747 74.0542 125.872 72.1522 125.872 69.8052V58.0972C125.872 46.6092 116.387 41.6572 111.101 39.7862C109.148 39.0982 107.98 37.0702 108.36 35.0082C108.829 32.4482 111.435 30.9182 113.849 31.7812C116.035 32.5622 118.751 33.7482 121.47 35.4772C129.831 40.7942 134.247 48.6152 134.247 58.0972V69.8052C134.243 72.1522 132.369 74.0542 130.058 74.0542Z" fill="url(#paint16_linear)"/>
<path d="M125.872 87.2789V85.5889C125.872 83.2429 127.747 81.3398 130.058 81.3398C132.369 81.3398 134.243 83.2429 134.247 85.5889V87.2789C134.247 89.6249 132.372 91.5278 130.061 91.5278C127.747 91.5278 125.872 89.6249 125.872 87.2789Z" fill="url(#paint17_linear)"/>
<path d="M202.03 92.739C202.03 92.739 197.923 93.729 197.131 97.283C195.474 97.687 189.893 100.691 194.107 107.325C196.233 109.928 196.556 110.368 196.556 110.368L208.729 106.775V91.418L202.03 92.739Z" fill="url(#paint18_linear)"/>
<path d="M206.092 101.098C206.092 101.098 199.272 100.154 197.057 103.289C194.842 106.423 194.032 114.443 194.032 114.443L199.166 114.173L198.732 123.517L208.204 129.069L221.694 121.813L219.642 113.346L223.952 112.22C223.952 112.22 222.667 99.9342 216.671 101.748C213.593 102.078 212.62 102.021 212.62 102.021C212.62 102.021 211.811 104.606 209.027 104.386C206.244 104.169 206.092 101.098 206.092 101.098Z" fill="url(#paint19_linear)"/>
<path d="M206.773 97.2363L205.357 103.555C205.289 103.853 205.446 104.155 205.726 104.268C206.457 104.566 207.923 105.074 209.432 105.074C210.994 105.074 212.471 104.219 213.149 103.761C213.383 103.604 213.479 103.31 213.39 103.044L211.225 96.5973C211.126 96.3023 210.827 96.1283 210.522 96.1813L207.274 96.7563C207.025 96.8033 206.83 96.9913 206.773 97.2363Z" fill="url(#paint20_linear)"/>
<path d="M198.306 102.194C200.291 101.534 202.982 101.978 203.092 106.429C203.202 110.881 198.839 117.978 200.401 120.445C201.984 122.948 205.371 126.498 207.522 128.521C207.022 130.9 205.669 132.898 205.669 132.898C205.669 132.898 197.731 129.235 194.274 125.567C190.816 121.9 192.563 113.487 194.164 107.502C195.371 102.989 198.306 102.194 198.306 102.194Z" fill="url(#paint21_linear)"/>
<path d="M219.109 102.194C217.125 101.534 214.434 101.978 214.324 106.429C214.214 110.881 218.577 117.978 217.015 120.445C215.432 122.948 212.045 126.498 209.894 128.521C210.394 130.9 211.747 132.898 211.747 132.898C211.747 132.898 219.685 129.235 223.142 125.567C226.6 121.9 224.853 113.487 223.252 107.502C222.042 102.989 219.109 102.194 219.109 102.194Z" fill="url(#paint22_linear)"/>
<path d="M210.423 96.1808C210.423 96.1808 211.864 100.54 211.502 102.961C211.143 105.379 211.647 108.861 214.707 109.923C217.768 110.984 220.686 109.192 221.729 106.149C222.773 103.107 221.765 100.909 219.209 98.9278C219.642 97.0608 217.537 93.6668 213.792 92.4568C210.121 91.9458 210.423 96.1808 210.423 96.1808Z" fill="url(#paint23_linear)"/>
<path d="M204.874 90.5728C204.874 90.5728 202.535 92.2228 202.584 94.5628C202.634 96.9018 204.512 96.4658 204.512 96.4658C204.512 96.4658 205.08 99.9298 208.772 100.051C212.464 100.168 212.986 96.4758 212.986 96.4758C212.986 96.4758 214.839 96.7098 214.881 94.5798C214.924 92.4508 213.305 89.5928 211.697 88.7798C210.089 87.9668 206.131 88.9468 204.874 90.5728Z" fill="url(#paint24_linear)"/>
<path d="M207.252 89.8429C207.252 89.8429 206.514 91.9689 204.657 92.3349C202.801 92.7009 202.637 93.6479 202.637 94.5359C202.637 95.1889 202.857 95.8099 203.014 96.1089C202.013 95.5579 200.646 94.2449 201.516 90.6239C202.357 87.1269 204.945 85.4269 208.431 85.4799C211.349 84.7099 215.67 88.6179 215.293 93.7019C214.672 92.8779 214.097 92.6859 213.664 92.5369C213.231 92.3879 212.332 91.4939 212.222 90.5959C211.466 90.7589 208.818 91.1239 207.252 89.8429Z" fill="url(#paint25_linear)"/>
<path d="M199.269 136.782H218.541C219.415 136.782 220.196 136.122 220.498 135.124L224.381 122.344C224.885 120.686 223.877 118.922 222.425 118.922H195.559C194.121 118.922 193.113 120.654 193.592 122.309L197.302 135.089C197.597 136.104 198.385 136.782 199.269 136.782Z" fill="url(#paint26_linear)"/>
<path d="M198.502 142.658C198.502 142.658 198.204 142.001 197.976 141.93C197.746 141.859 194.451 141.728 193.248 141.415C192.044 141.103 188.579 140.609 187.092 142.015C185.8 143.24 185.37 146.101 187.341 147.748C188.079 148.391 188.807 148.579 191.544 148.451C194.281 148.324 198.25 148.352 199.119 147.085C199.091 144.99 198.502 142.658 198.502 142.658Z" fill="white"/>
<path d="M201.558 141.93C201.558 141.93 198.377 142.643 197.238 142.54C196.102 142.434 197.053 147.02 197.053 147.02C197.053 147.02 200.092 147.23 202.779 146.452C203.688 142.941 201.558 141.93 201.558 141.93Z" fill="url(#paint27_linear)"/>
<path d="M200.419 141.764L202.073 146.908C202.073 146.908 237.619 142.225 232.539 130.691C228.293 121.05 200.419 141.764 200.419 141.764Z" fill="url(#paint28_linear)"/>
<path d="M198.086 142.166C198.086 142.166 199.389 142.677 199.552 144.491C199.719 146.309 199.18 147.527 196.411 147.864C193.642 148.201 192.939 148.073 191.203 148.116C189.467 148.158 186.946 148.325 186.574 145.024C186.201 141.722 189.577 140.881 193.077 141.722C194.181 141.932 198.086 142.166 198.086 142.166Z" fill="url(#paint29_linear)"/>
<path d="M220.682 142.66C220.682 142.66 220.98 142.003 221.208 141.932C221.435 141.861 224.733 141.73 225.936 141.417C227.14 141.105 230.37 140.587 232.003 141.978C233.515 143.27 233.615 146.128 231.893 147.704C231.155 148.347 230.377 148.581 227.64 148.453C224.903 148.325 220.934 148.354 220.064 147.087C220.093 144.992 220.682 142.66 220.682 142.66Z" fill="white"/>
<path d="M217.622 141.93C217.622 141.93 220.803 142.643 221.942 142.54C223.078 142.434 222.127 147.02 222.127 147.02C222.127 147.02 219.088 147.23 216.401 146.452C215.496 142.941 217.622 141.93 217.622 141.93Z" fill="url(#paint30_linear)"/>
<path d="M218.765 141.764L217.111 146.908C217.111 146.908 181.565 142.225 186.645 130.691C190.891 121.05 218.765 141.764 218.765 141.764Z" fill="url(#paint31_linear)"/>
<path d="M221.094 142.166C221.094 142.166 219.791 142.677 219.628 144.491C219.461 146.309 220.001 147.527 222.77 147.864C225.539 148.201 226.241 148.073 227.977 148.116C229.713 148.158 232.234 148.325 232.607 145.024C232.979 141.722 229.603 140.881 226.103 141.722C225.002 141.932 221.094 142.166 221.094 142.166Z" fill="url(#paint32_linear)"/>
<defs>
<linearGradient id="paint0_linear" x1="134.002" y1="59.8327" x2="134.002" y2="217.832" gradientUnits="userSpaceOnUse">
<stop offset="9.59002e-08" stop-color="#F4F2FB"/>
<stop offset="1" stop-color="#E1EEF5"/>
</linearGradient>
<linearGradient id="paint1_linear" x1="111.194" y1="109.277" x2="243.401" y2="109.277" gradientUnits="userSpaceOnUse">
<stop offset="0.3396" stop-color="#B0B9E1"/>
<stop offset="0.8657" stop-color="#EAF0F8"/>
</linearGradient>
<linearGradient id="paint2_linear" x1="32.6057" y1="112.713" x2="32.6057" y2="64.0161" gradientUnits="userSpaceOnUse">
<stop offset="0.2267" stop-color="#B7ACE0"/>
<stop offset="0.7893" stop-color="#E8E7FA"/>
</linearGradient>
<linearGradient id="paint3_linear" x1="32.6064" y1="69.4219" x2="32.6064" y2="123.074" gradientUnits="userSpaceOnUse">
<stop stop-color="#ECF1FB"/>
<stop offset="0.818" stop-color="#AFB0E7"/>
</linearGradient>
<linearGradient id="paint4_linear" x1="210.506" y1="80.223" x2="210.506" y2="48.868" gradientUnits="userSpaceOnUse">
<stop offset="0.2267" stop-color="#CCD4F4"/>
<stop offset="0.7893" stop-color="#ECF1FB"/>
</linearGradient>
<linearGradient id="paint5_linear" x1="210.507" y1="52.3496" x2="210.507" y2="86.8946" gradientUnits="userSpaceOnUse">
<stop stop-color="#ECF1FB"/>
<stop offset="1" stop-color="#A6A8E2"/>
</linearGradient>
<linearGradient id="paint6_linear" x1="235.57" y1="111.904" x2="235.57" y2="102.025" gradientUnits="userSpaceOnUse">
<stop offset="0.2267" stop-color="#AFB0E7"/>
<stop offset="1" stop-color="#ECF1FB"/>
</linearGradient>
<linearGradient id="paint7_linear" x1="235.588" y1="103.272" x2="235.588" y2="119.175" gradientUnits="userSpaceOnUse">
<stop offset="9.59002e-08" stop-color="#DDE1F6"/>
<stop offset="0.818" stop-color="#A6A8E2"/>
</linearGradient>
<linearGradient id="paint8_linear" x1="188.505" y1="118.808" x2="170.371" y2="100.674" gradientUnits="userSpaceOnUse">
<stop offset="0.00319211" stop-color="#9A9ADB"/>
<stop offset="0.7893" stop-color="#C0BFEB"/>
</linearGradient>
<linearGradient id="paint9_linear" x1="170.283" y1="103.3" x2="186.123" y2="119.139" gradientUnits="userSpaceOnUse">
<stop offset="0.1157" stop-color="#DEE4FF"/>
<stop offset="0.8472" stop-color="#BACBEE"/>
</linearGradient>
<linearGradient id="paint10_linear" x1="173.353" y1="103.023" x2="82.7047" y2="12.3743" gradientUnits="userSpaceOnUse">
<stop offset="0.00319211" stop-color="#9A9ADB"/>
<stop offset="0.7893" stop-color="#C0BFEB"/>
</linearGradient>
<linearGradient id="paint11_linear" x1="83.1168" y1="16.0417" x2="170.757" y2="103.681" gradientUnits="userSpaceOnUse">
<stop offset="0.1157" stop-color="#CED3F4"/>
<stop offset="0.8472" stop-color="#C6D5F4"/>
</linearGradient>
<linearGradient id="paint12_linear" x1="155.926" y1="137.666" x2="61.297" y2="43.038" gradientUnits="userSpaceOnUse">
<stop offset="0.00319211" stop-color="#9A9ADB"/>
<stop offset="0.7893" stop-color="#C0BFEB"/>
</linearGradient>
<linearGradient id="paint13_linear" x1="122.161" y1="146.589" x2="90.13" y2="115.535" gradientUnits="userSpaceOnUse">
<stop offset="0.00319211" stop-color="#9A9ADB"/>
<stop offset="0.7893" stop-color="#C0BFEB"/>
</linearGradient>
<linearGradient id="paint14_linear" x1="90.298" y1="116.47" x2="118.581" y2="144.753" gradientUnits="userSpaceOnUse">
<stop offset="0.1157" stop-color="#DEE4FF"/>
<stop offset="0.8472" stop-color="#BACBEE"/>
</linearGradient>
<linearGradient id="paint15_linear" x1="60.4649" y1="44.892" x2="152.37" y2="136.797" gradientUnits="userSpaceOnUse">
<stop offset="0.1157" stop-color="#CED3F4"/>
<stop offset="0.8472" stop-color="#C6D5F4"/>
</linearGradient>
<linearGradient id="paint16_linear" x1="108.285" y1="52.7972" x2="134.245" y2="52.7972" gradientUnits="userSpaceOnUse">
<stop stop-color="#EBF2FA"/>
<stop offset="0.5247" stop-color="#FDFEFF"/>
<stop offset="1" stop-color="#E9EFFB"/>
</linearGradient>
<linearGradient id="paint17_linear" x1="125.871" y1="86.4328" x2="134.246" y2="86.4328" gradientUnits="userSpaceOnUse">
<stop stop-color="#EBF2FA"/>
<stop offset="0.5247" stop-color="#FDFEFF"/>
<stop offset="1" stop-color="#E9EFFB"/>
</linearGradient>
<linearGradient id="paint18_linear" x1="200.646" y1="110.366" x2="200.646" y2="91.419" gradientUnits="userSpaceOnUse">
<stop stop-color="#4F5C7C"/>
<stop offset="1" stop-color="#274168"/>
</linearGradient>
<linearGradient id="paint19_linear" x1="208.992" y1="129.07" x2="208.992" y2="100.966" gradientUnits="userSpaceOnUse">
<stop stop-color="#C3D5FD"/>
<stop offset="1" stop-color="#1A90FC"/>
</linearGradient>
<linearGradient id="paint20_linear" x1="209.382" y1="96.1723" x2="209.382" y2="105.076" gradientUnits="userSpaceOnUse">
<stop stop-color="#F4AE98"/>
<stop offset="1" stop-color="#FAD1BB"/>
</linearGradient>
<linearGradient id="paint21_linear" x1="199.902" y1="132.902" x2="199.903" y2="101.952" gradientUnits="userSpaceOnUse">
<stop stop-color="#C3D5FD"/>
<stop offset="1" stop-color="#1A90FC"/>
</linearGradient>
<linearGradient id="paint22_linear" x1="217.445" y1="132.937" x2="217.445" y2="101.987" gradientUnits="userSpaceOnUse">
<stop stop-color="#C3D5FD"/>
<stop offset="1" stop-color="#1A90FC"/>
</linearGradient>
<linearGradient id="paint23_linear" x1="216.277" y1="110.233" x2="216.277" y2="92.4158" gradientUnits="userSpaceOnUse">
<stop stop-color="#4F5C7C"/>
<stop offset="1" stop-color="#274168"/>
</linearGradient>
<linearGradient id="paint24_linear" x1="208.924" y1="88.4448" x2="208.554" y2="100.043" gradientUnits="userSpaceOnUse">
<stop stop-color="#F4B9A4"/>
<stop offset="0.652" stop-color="#FAD1BB"/>
</linearGradient>
<linearGradient id="paint25_linear" x1="208.277" y1="96.1039" x2="208.277" y2="85.3789" gradientUnits="userSpaceOnUse">
<stop stop-color="#4F5C7C"/>
<stop offset="1" stop-color="#274168"/>
</linearGradient>
<linearGradient id="paint26_linear" x1="208.992" y1="118.923" x2="208.992" y2="136.783" gradientUnits="userSpaceOnUse">
<stop stop-color="#275C89"/>
<stop offset="1" stop-color="#013F7C"/>
</linearGradient>
<linearGradient id="paint27_linear" x1="203.004" y1="144.488" x2="196.681" y2="144.488" gradientUnits="userSpaceOnUse">
<stop stop-color="#F4B9A4"/>
<stop offset="0.652" stop-color="#FAD1BB"/>
</linearGradient>
<linearGradient id="paint28_linear" x1="200.419" y1="137.521" x2="233.037" y2="137.521" gradientUnits="userSpaceOnUse">
<stop stop-color="#18264B"/>
<stop offset="0.652" stop-color="#2D3C65"/>
</linearGradient>
<linearGradient id="paint29_linear" x1="193.065" y1="141.419" x2="193.065" y2="148.13" gradientUnits="userSpaceOnUse">
<stop stop-color="#FFDB80"/>
<stop offset="1" stop-color="#FFBB24"/>
</linearGradient>
<linearGradient id="paint30_linear" x1="216.178" y1="144.488" x2="222.501" y2="144.488" gradientUnits="userSpaceOnUse">
<stop stop-color="#F4B9A4"/>
<stop offset="0.652" stop-color="#FAD1BB"/>
</linearGradient>
<linearGradient id="paint31_linear" x1="186.145" y1="137.521" x2="218.763" y2="137.521" gradientUnits="userSpaceOnUse">
<stop stop-color="#445677"/>
<stop offset="1" stop-color="#293861"/>
</linearGradient>
<linearGradient id="paint32_linear" x1="226.118" y1="141.419" x2="226.118" y2="148.13" gradientUnits="userSpaceOnUse">
<stop stop-color="#FFDB80"/>
<stop offset="1" stop-color="#FFBB24"/>
</linearGradient>
</defs>
</svg>
