<svg width="222" height="152" viewBox="0 0 222 152" fill="none" xmlns="http://www.w3.org/2000/svg">
<path d="M89.193 125.972L108.573 145.376L143.185 127.782L153.331 121.215L164.883 120.43L184.954 107.05L197.184 145.312L211.09 144.215C211.09 144.215 211.64 140.243 205.001 139.746C208.739 136.008 210.333 130.207 210.333 130.207C210.333 130.207 209.961 126.05 201.142 125.567C202.204 122.993 202.885 121.818 202.885 121.818L221.406 94.9377L164.78 73.1797L89.193 125.972Z" fill="url(#paint0_linear)"/>
<path d="M10.8837 64.1011C10.8837 64.1011 10.8056 63.8991 10.6991 64.1161C9.74063 66.0651 1.06083 87.1761 0.372132 103.471C0.372132 103.471 -1.07627 112.832 11.0612 112.708C21.1929 112.605 20.9231 103.975 20.8876 101.068C20.7527 89.2751 10.8837 64.1011 10.8837 64.1011Z" fill="url(#paint1_linear)"/>
<path d="M10.6068 123.073C10.4116 123.073 10.2518 122.913 10.2518 122.718V69.7769C10.2518 69.5819 10.4116 69.4219 10.6068 69.4219C10.8021 69.4219 10.9618 69.5819 10.9618 69.7769V122.718C10.9618 122.917 10.8021 123.073 10.6068 123.073Z" fill="url(#paint2_linear)"/>
<path d="M188.685 48.923C188.685 48.923 188.636 48.791 188.568 48.933C187.951 50.186 182.363 63.783 181.919 74.273C181.919 74.273 180.985 80.301 188.803 80.223C195.327 80.159 195.153 74.6 195.129 72.729C195.04 65.132 188.685 48.923 188.685 48.923Z" fill="url(#paint3_linear)"/>
<path d="M188.508 86.8966C188.38 86.8966 188.281 86.7936 188.281 86.6686V52.5786C188.281 52.4506 188.384 52.3516 188.508 52.3516C188.632 52.3516 188.735 52.4536 188.735 52.5786V86.6656C188.735 86.7936 188.632 86.8966 188.508 86.8966Z" fill="url(#paint4_linear)"/>
<path d="M213.571 111.903C216.298 111.903 218.509 109.693 218.509 106.965C218.509 104.238 216.298 102.027 213.571 102.027C210.844 102.027 208.633 104.238 208.633 106.965C208.633 109.693 210.844 111.903 213.571 111.903Z" fill="url(#paint5_linear)"/>
<path d="M213.589 119.174C213.503 119.174 213.436 119.106 213.436 119.021V103.422C213.436 103.337 213.503 103.27 213.589 103.27C213.674 103.27 213.741 103.337 213.741 103.422V119.021C213.741 119.106 213.67 119.174 213.589 119.174Z" fill="url(#paint6_linear)"/>
<path d="M166.693 82.3555C175.962 93.2295 175.969 109.201 166.37 118.945C156.771 128.69 141.037 128.683 130.327 119.272L166.693 82.3555Z" fill="url(#paint7_linear)"/>
<path d="M165.255 86.3281C173.31 95.8601 172.895 110.23 164.002 119.258C155.11 128.286 140.956 128.704 131.566 120.529L165.255 86.3281Z" fill="url(#paint8_linear)"/>
<path d="M171.734 48.308C164.524 48.884 156.327 45.823 151.414 40.832L135.262 24.435C120.685 9.63833 98.292 7.62553 81.586 18.3891L75.32 12.0275C71.383 8.03024 65.195 7.83143 61.4961 11.5837C57.8005 15.3361 57.9958 21.6196 61.9327 25.617L68.198 31.978C57.5946 48.937 59.5791 71.675 74.155 86.471L90.308 102.868C97.873 110.551 100.937 126.11 93.372 133.789L102.633 143.835L104.05 144.908C105.832 146.253 108.338 146.072 109.907 144.478L190.72 62.43C193.318 59.793 193.318 55.554 190.72 52.916L186.027 48.152C183.73 45.82 180.226 45.213 177.251 46.576C175.401 47.417 173.353 48.177 171.734 48.308Z" fill="url(#paint9_linear)"/>
<path d="M169.682 50.782C162.401 51.876 153.736 48.855 148.67 43.711L133.053 27.856C118.96 13.55 97.308 11.6046 81.152 22.01L75.093 15.8575C71.287 11.9915 65.302 11.7998 61.7268 15.4315C58.152 19.0596 58.3401 25.134 62.1493 29L68.209 35.152C57.9567 51.549 59.8737 73.534 73.967 87.841L89.584 103.695C96.9 111.122 99.861 126.167 92.544 133.593L102.296 143.494C104.124 145.351 107.117 145.351 108.945 143.494L186.509 64.752C189.108 62.114 189.108 57.875 186.509 55.238L182.384 51.052C180.055 48.688 176.491 48.063 173.488 49.472C172.178 50.087 170.804 50.612 169.682 50.782Z" fill="url(#paint10_linear)"/>
<path d="M143.574 107.6C135.033 104.479 128.856 93.258 129.058 83.911L129.562 60.694C130.006 40.192 116.544 22.666 97.939 17.405L98.063 10.7487C98.187 4.948 93.366 0.137799 87.289 0.00289887C81.211 -0.132001 76.184 4.4581 76.056 10.2588L75.907 17.0713C57.387 21.7076 43.471 38.474 43.0308 58.759L42.5267 81.976C42.3279 91.06 36.0373 101.643 27.7303 104.742C27.3717 104.877 26.928 105.001 26.4523 105.115C24.1874 105.658 22.565 107.653 22.5153 109.982L22.3236 118.832C22.2491 122.279 24.9826 125.137 28.4332 125.215L141.025 127.732C144.607 127.814 147.575 124.974 147.653 121.392L147.82 113.631C147.88 110.926 146.165 108.523 143.617 107.614C143.602 107.61 143.588 107.607 143.574 107.6Z" fill="url(#paint11_linear)"/>
<path d="M111.082 126.41C109.737 140.581 98.175 151.508 84.351 151.199C70.527 150.891 59.4513 139.456 58.72 125.238L111.082 126.41Z" fill="url(#paint12_linear)"/>
<path d="M106.503 126.963C105.285 139.463 94.774 149.094 82.2 148.81C69.626 148.526 59.54 138.437 58.869 125.898L106.503 126.963Z" fill="url(#paint13_linear)"/>
<path d="M138.918 108.027C130.913 104.786 125.172 94.189 125.364 85.332L125.85 62.918C126.287 42.764 112.804 25.586 94.334 20.8571L94.532 11.7159C94.646 6.47253 90.549 2.12733 85.384 2.01023C80.219 1.89303 75.937 6.05363 75.824 11.297L75.625 20.4382C56.9662 24.336 42.752 40.893 42.3118 61.047L41.8255 83.461C41.6373 92.063 35.7905 102.056 27.9982 105.262C27.5687 105.439 27.0149 105.599 26.4291 105.745C24.1749 106.291 22.5525 108.258 22.5028 110.58L22.3005 119.895C22.2401 122.756 24.5086 125.128 27.3699 125.192L136.696 127.638C140.278 127.719 143.245 124.879 143.324 121.297L143.48 114.172C143.54 111.46 141.829 109.032 139.262 108.152C139.138 108.113 139.025 108.07 138.918 108.027Z" fill="url(#paint14_linear)"/>
<path d="M108.058 74.0542C105.747 74.0542 103.872 72.1522 103.872 69.8052V58.0972C103.872 46.6092 94.387 41.6572 89.101 39.7862C87.148 39.0982 85.98 37.0702 86.36 35.0082C86.829 32.4482 89.435 30.9182 91.849 31.7812C94.035 32.5622 96.751 33.7482 99.47 35.4772C107.831 40.7942 112.247 48.6152 112.247 58.0972V69.8052C112.243 72.1522 110.369 74.0542 108.058 74.0542Z" fill="url(#paint15_linear)"/>
<path d="M103.872 87.2789V85.5889C103.872 83.2429 105.747 81.3398 108.058 81.3398C110.369 81.3398 112.243 83.2429 112.247 85.5889V87.2789C112.247 89.6249 110.372 91.5278 108.061 91.5278C105.747 91.5278 103.872 89.6249 103.872 87.2789Z" fill="url(#paint16_linear)"/>
<path d="M180.03 92.739C180.03 92.739 175.923 93.729 175.131 97.283C173.474 97.687 167.893 100.691 172.107 107.325C174.233 109.928 174.556 110.368 174.556 110.368L186.729 106.775V91.418L180.03 92.739Z" fill="url(#paint17_linear)"/>
<path d="M184.092 101.098C184.092 101.098 177.272 100.154 175.057 103.289C172.842 106.423 172.032 114.443 172.032 114.443L177.166 114.173L176.732 123.517L186.204 129.069L199.694 121.813L197.642 113.346L201.952 112.22C201.952 112.22 200.667 99.9344 194.671 101.748C191.593 102.078 190.62 102.021 190.62 102.021C190.62 102.021 189.811 104.606 187.027 104.386C184.244 104.169 184.092 101.098 184.092 101.098Z" fill="url(#paint18_linear)"/>
<path d="M184.773 97.2363L183.357 103.555C183.289 103.853 183.446 104.155 183.726 104.268C184.457 104.566 185.923 105.074 187.432 105.074C188.994 105.074 190.471 104.219 191.149 103.761C191.383 103.604 191.479 103.31 191.39 103.044L189.225 96.5973C189.126 96.3023 188.827 96.1283 188.522 96.1813L185.274 96.7563C185.025 96.8033 184.83 96.9913 184.773 97.2363Z" fill="url(#paint19_linear)"/>
<path d="M176.306 102.194C178.291 101.534 180.982 101.978 181.092 106.429C181.202 110.881 176.839 117.978 178.401 120.445C179.984 122.948 183.371 126.498 185.522 128.521C185.022 130.9 183.669 132.898 183.669 132.898C183.669 132.898 175.731 129.235 172.274 125.567C168.816 121.9 170.563 113.487 172.164 107.502C173.371 102.989 176.306 102.194 176.306 102.194Z" fill="url(#paint20_linear)"/>
<path d="M197.109 102.194C195.125 101.534 192.434 101.978 192.324 106.429C192.214 110.881 196.577 117.978 195.015 120.445C193.432 122.948 190.045 126.498 187.894 128.521C188.394 130.9 189.747 132.898 189.747 132.898C189.747 132.898 197.685 129.235 201.142 125.567C204.6 121.9 202.853 113.487 201.252 107.502C200.042 102.989 197.109 102.194 197.109 102.194Z" fill="url(#paint21_linear)"/>
<path d="M188.423 96.1808C188.423 96.1808 189.864 100.54 189.502 102.961C189.143 105.379 189.647 108.861 192.707 109.923C195.768 110.984 198.686 109.192 199.729 106.149C200.773 103.107 199.765 100.909 197.209 98.9278C197.642 97.0608 195.537 93.6668 191.792 92.4568C188.121 91.9458 188.423 96.1808 188.423 96.1808Z" fill="url(#paint22_linear)"/>
<path d="M182.874 90.5728C182.874 90.5728 180.535 92.2228 180.584 94.5628C180.634 96.9018 182.512 96.4658 182.512 96.4658C182.512 96.4658 183.08 99.9298 186.772 100.051C190.464 100.168 190.986 96.4758 190.986 96.4758C190.986 96.4758 192.839 96.7098 192.881 94.5798C192.924 92.4508 191.305 89.5928 189.697 88.7798C188.089 87.9668 184.131 88.9468 182.874 90.5728Z" fill="url(#paint23_linear)"/>
<path d="M185.252 89.8429C185.252 89.8429 184.514 91.9689 182.657 92.3349C180.801 92.7009 180.637 93.6479 180.637 94.5359C180.637 95.1889 180.857 95.8099 181.014 96.1089C180.013 95.5579 178.646 94.2449 179.516 90.6239C180.357 87.1269 182.945 85.4269 186.431 85.4799C189.349 84.7099 193.67 88.6179 193.293 93.7019C192.672 92.8779 192.097 92.6859 191.664 92.5369C191.231 92.3879 190.332 91.4939 190.222 90.5959C189.466 90.7589 186.818 91.1239 185.252 89.8429Z" fill="url(#paint24_linear)"/>
<path d="M177.269 136.782H196.541C197.415 136.782 198.196 136.122 198.498 135.124L202.381 122.344C202.885 120.686 201.877 118.922 200.425 118.922H173.559C172.121 118.922 171.113 120.654 171.592 122.309L175.302 135.089C175.597 136.104 176.385 136.782 177.269 136.782Z" fill="url(#paint25_linear)"/>
<path d="M176.502 142.658C176.502 142.658 176.204 142.001 175.976 141.93C175.746 141.859 172.451 141.728 171.248 141.415C170.044 141.103 166.579 140.609 165.092 142.015C163.8 143.24 163.37 146.101 165.341 147.748C166.079 148.391 166.807 148.579 169.544 148.451C172.281 148.324 176.25 148.352 177.119 147.085C177.091 144.99 176.502 142.658 176.502 142.658Z" fill="white"/>
<path d="M179.558 141.93C179.558 141.93 176.377 142.643 175.238 142.54C174.102 142.434 175.053 147.02 175.053 147.02C175.053 147.02 178.092 147.23 180.779 146.452C181.688 142.941 179.558 141.93 179.558 141.93Z" fill="url(#paint26_linear)"/>
<path d="M178.419 141.764L180.073 146.908C180.073 146.908 215.619 142.225 210.539 130.691C206.293 121.05 178.419 141.764 178.419 141.764Z" fill="url(#paint27_linear)"/>
<path d="M176.086 142.166C176.086 142.166 177.389 142.677 177.552 144.491C177.719 146.309 177.18 147.527 174.411 147.864C171.642 148.201 170.939 148.073 169.203 148.116C167.467 148.158 164.946 148.325 164.574 145.024C164.201 141.722 167.577 140.881 171.077 141.722C172.181 141.932 176.086 142.166 176.086 142.166Z" fill="url(#paint28_linear)"/>
<path d="M198.682 142.66C198.682 142.66 198.98 142.003 199.208 141.932C199.435 141.861 202.733 141.73 203.936 141.417C205.14 141.105 208.37 140.587 210.003 141.978C211.515 143.27 211.615 146.128 209.893 147.704C209.155 148.347 208.377 148.581 205.64 148.453C202.903 148.325 198.934 148.354 198.064 147.087C198.093 144.992 198.682 142.66 198.682 142.66Z" fill="white"/>
<path d="M195.622 141.93C195.622 141.93 198.803 142.643 199.942 142.54C201.078 142.434 200.127 147.02 200.127 147.02C200.127 147.02 197.088 147.23 194.401 146.452C193.496 142.941 195.622 141.93 195.622 141.93Z" fill="url(#paint29_linear)"/>
<path d="M196.765 141.764L195.111 146.908C195.111 146.908 159.565 142.225 164.645 130.691C168.891 121.05 196.765 141.764 196.765 141.764Z" fill="url(#paint30_linear)"/>
<path d="M199.094 142.166C199.094 142.166 197.791 142.677 197.628 144.491C197.461 146.309 198.001 147.527 200.77 147.864C203.539 148.201 204.241 148.073 205.977 148.116C207.713 148.158 210.234 148.325 210.607 145.024C210.979 141.722 207.603 140.881 204.103 141.722C203.002 141.932 199.094 142.166 199.094 142.166Z" fill="url(#paint31_linear)"/>
<defs>
<linearGradient id="paint0_linear" x1="89.194" y1="109.277" x2="221.401" y2="109.277" gradientUnits="userSpaceOnUse">
<stop offset="0.3396" stop-color="#B0B9E1"/>
<stop offset="0.8657" stop-color="#EAF0F8"/>
</linearGradient>
<linearGradient id="paint1_linear" x1="10.6057" y1="112.713" x2="10.6057" y2="64.0161" gradientUnits="userSpaceOnUse">
<stop offset="0.2267" stop-color="#B7ACE0"/>
<stop offset="0.7893" stop-color="#E8E7FA"/>
</linearGradient>
<linearGradient id="paint2_linear" x1="10.6064" y1="69.4219" x2="10.6064" y2="123.074" gradientUnits="userSpaceOnUse">
<stop stop-color="#ECF1FB"/>
<stop offset="0.818" stop-color="#AFB0E7"/>
</linearGradient>
<linearGradient id="paint3_linear" x1="188.506" y1="80.223" x2="188.506" y2="48.868" gradientUnits="userSpaceOnUse">
<stop offset="0.2267" stop-color="#CCD4F4"/>
<stop offset="0.7893" stop-color="#ECF1FB"/>
</linearGradient>
<linearGradient id="paint4_linear" x1="188.507" y1="52.3496" x2="188.507" y2="86.8946" gradientUnits="userSpaceOnUse">
<stop stop-color="#ECF1FB"/>
<stop offset="1" stop-color="#A6A8E2"/>
</linearGradient>
<linearGradient id="paint5_linear" x1="213.57" y1="111.904" x2="213.57" y2="102.025" gradientUnits="userSpaceOnUse">
<stop offset="0.2267" stop-color="#AFB0E7"/>
<stop offset="1" stop-color="#ECF1FB"/>
</linearGradient>
<linearGradient id="paint6_linear" x1="213.588" y1="103.272" x2="213.588" y2="119.175" gradientUnits="userSpaceOnUse">
<stop offset="9.59002e-08" stop-color="#DDE1F6"/>
<stop offset="0.818" stop-color="#A6A8E2"/>
</linearGradient>
<linearGradient id="paint7_linear" x1="166.505" y1="118.808" x2="148.371" y2="100.674" gradientUnits="userSpaceOnUse">
<stop offset="0.00319211" stop-color="#9A9ADB"/>
<stop offset="0.7893" stop-color="#C0BFEB"/>
</linearGradient>
<linearGradient id="paint8_linear" x1="148.283" y1="103.3" x2="164.123" y2="119.139" gradientUnits="userSpaceOnUse">
<stop offset="0.1157" stop-color="#DEE4FF"/>
<stop offset="0.8472" stop-color="#BACBEE"/>
</linearGradient>
<linearGradient id="paint9_linear" x1="151.353" y1="103.023" x2="60.7047" y2="12.3743" gradientUnits="userSpaceOnUse">
<stop offset="0.00319211" stop-color="#9A9ADB"/>
<stop offset="0.7893" stop-color="#C0BFEB"/>
</linearGradient>
<linearGradient id="paint10_linear" x1="61.1168" y1="16.0417" x2="148.757" y2="103.681" gradientUnits="userSpaceOnUse">
<stop offset="0.1157" stop-color="#CED3F4"/>
<stop offset="0.8472" stop-color="#C6D5F4"/>
</linearGradient>
<linearGradient id="paint11_linear" x1="133.926" y1="137.666" x2="39.297" y2="43.038" gradientUnits="userSpaceOnUse">
<stop offset="0.00319211" stop-color="#9A9ADB"/>
<stop offset="0.7893" stop-color="#C0BFEB"/>
</linearGradient>
<linearGradient id="paint12_linear" x1="100.161" y1="146.589" x2="68.13" y2="115.535" gradientUnits="userSpaceOnUse">
<stop offset="0.00319211" stop-color="#9A9ADB"/>
<stop offset="0.7893" stop-color="#C0BFEB"/>
</linearGradient>
<linearGradient id="paint13_linear" x1="68.298" y1="116.47" x2="96.581" y2="144.753" gradientUnits="userSpaceOnUse">
<stop offset="0.1157" stop-color="#DEE4FF"/>
<stop offset="0.8472" stop-color="#BACBEE"/>
</linearGradient>
<linearGradient id="paint14_linear" x1="38.4649" y1="44.892" x2="130.37" y2="136.797" gradientUnits="userSpaceOnUse">
<stop offset="0.1157" stop-color="#CED3F4"/>
<stop offset="0.8472" stop-color="#C6D5F4"/>
</linearGradient>
<linearGradient id="paint15_linear" x1="86.285" y1="52.7972" x2="112.245" y2="52.7972" gradientUnits="userSpaceOnUse">
<stop stop-color="#EBF2FA"/>
<stop offset="0.5247" stop-color="#FDFEFF"/>
<stop offset="1" stop-color="#E9EFFB"/>
</linearGradient>
<linearGradient id="paint16_linear" x1="103.871" y1="86.4328" x2="112.246" y2="86.4328" gradientUnits="userSpaceOnUse">
<stop stop-color="#EBF2FA"/>
<stop offset="0.5247" stop-color="#FDFEFF"/>
<stop offset="1" stop-color="#E9EFFB"/>
</linearGradient>
<linearGradient id="paint17_linear" x1="178.646" y1="110.366" x2="178.646" y2="91.419" gradientUnits="userSpaceOnUse">
<stop stop-color="#4F5C7C"/>
<stop offset="1" stop-color="#274168"/>
</linearGradient>
<linearGradient id="paint18_linear" x1="186.992" y1="129.07" x2="186.992" y2="100.966" gradientUnits="userSpaceOnUse">
<stop stop-color="#C3D5FD"/>
<stop offset="1" stop-color="#1A90FC"/>
</linearGradient>
<linearGradient id="paint19_linear" x1="187.382" y1="96.1723" x2="187.382" y2="105.076" gradientUnits="userSpaceOnUse">
<stop stop-color="#F4AE98"/>
<stop offset="1" stop-color="#FAD1BB"/>
</linearGradient>
<linearGradient id="paint20_linear" x1="177.902" y1="132.902" x2="177.903" y2="101.952" gradientUnits="userSpaceOnUse">
<stop stop-color="#C3D5FD"/>
<stop offset="1" stop-color="#1A90FC"/>
</linearGradient>
<linearGradient id="paint21_linear" x1="195.445" y1="132.937" x2="195.445" y2="101.987" gradientUnits="userSpaceOnUse">
<stop stop-color="#C3D5FD"/>
<stop offset="1" stop-color="#1A90FC"/>
</linearGradient>
<linearGradient id="paint22_linear" x1="194.277" y1="110.233" x2="194.277" y2="92.4158" gradientUnits="userSpaceOnUse">
<stop stop-color="#4F5C7C"/>
<stop offset="1" stop-color="#274168"/>
</linearGradient>
<linearGradient id="paint23_linear" x1="186.924" y1="88.4448" x2="186.554" y2="100.043" gradientUnits="userSpaceOnUse">
<stop stop-color="#F4B9A4"/>
<stop offset="0.652" stop-color="#FAD1BB"/>
</linearGradient>
<linearGradient id="paint24_linear" x1="186.277" y1="96.1039" x2="186.277" y2="85.3789" gradientUnits="userSpaceOnUse">
<stop stop-color="#4F5C7C"/>
<stop offset="1" stop-color="#274168"/>
</linearGradient>
<linearGradient id="paint25_linear" x1="186.992" y1="118.923" x2="186.992" y2="136.783" gradientUnits="userSpaceOnUse">
<stop stop-color="#275C89"/>
<stop offset="1" stop-color="#013F7C"/>
</linearGradient>
<linearGradient id="paint26_linear" x1="181.004" y1="144.488" x2="174.681" y2="144.488" gradientUnits="userSpaceOnUse">
<stop stop-color="#F4B9A4"/>
<stop offset="0.652" stop-color="#FAD1BB"/>
</linearGradient>
<linearGradient id="paint27_linear" x1="178.419" y1="137.521" x2="211.037" y2="137.521" gradientUnits="userSpaceOnUse">
<stop stop-color="#18264B"/>
<stop offset="0.652" stop-color="#2D3C65"/>
</linearGradient>
<linearGradient id="paint28_linear" x1="171.065" y1="141.419" x2="171.065" y2="148.13" gradientUnits="userSpaceOnUse">
<stop stop-color="#FFDB80"/>
<stop offset="1" stop-color="#FFBB24"/>
</linearGradient>
<linearGradient id="paint29_linear" x1="194.178" y1="144.488" x2="200.501" y2="144.488" gradientUnits="userSpaceOnUse">
<stop stop-color="#F4B9A4"/>
<stop offset="0.652" stop-color="#FAD1BB"/>
</linearGradient>
<linearGradient id="paint30_linear" x1="164.145" y1="137.521" x2="196.763" y2="137.521" gradientUnits="userSpaceOnUse">
<stop stop-color="#445677"/>
<stop offset="1" stop-color="#293861"/>
</linearGradient>
<linearGradient id="paint31_linear" x1="204.118" y1="141.419" x2="204.118" y2="148.13" gradientUnits="userSpaceOnUse">
<stop stop-color="#FFDB80"/>
<stop offset="1" stop-color="#FFBB24"/>
</linearGradient>
</defs>
</svg>
