<svg width="268" height="158" viewBox="0 0 268 158" fill="none" xmlns="http://www.w3.org/2000/svg">
<path d="M165.298 11.7627C150.875 20.3777 119.913 21.3787 97.198 11.1307C74.4828 0.882677 32.5444 2.20568 21.185 21.0487C9.82549 39.8927 35.1644 58.4037 25.9889 71.9567C16.8133 85.5097 -13.7655 104.681 7.20179 127.819C28.1691 150.958 54.7898 145.062 70.8103 142.738C102.449 138.15 142.151 175.638 186.818 147.326C212.556 131.013 250.885 159.297 265.82 124.184C278.141 95.2117 233.617 84.5057 247.036 65.0137C261.305 44.2837 258.565 19.7207 243.104 7.82568C228.704 -3.25532 190.198 -3.11332 165.298 11.7627Z" fill="url(#paint0_linear)"/>
<defs>
<linearGradient id="paint0_linear" x1="134.002" y1="0.000682644" x2="134.002" y2="158" gradientUnits="userSpaceOnUse">
<stop offset="9.59002e-08" stop-color="#F4F2FB"/>
<stop offset="1" stop-color="#E1EEF5"/>
</linearGradient>
</defs>
</svg>
