<svg width="238" height="206" viewBox="0 0 238 206" fill="none" xmlns="http://www.w3.org/2000/svg">
<path d="M146.795 68.3927C133.986 76.4627 106.49 77.4007 86.318 67.8017C66.1452 58.2017 28.9014 59.4407 18.8135 77.0917C8.7256 94.7427 31.2281 112.082 23.0797 124.778C14.9312 137.473 -12.2246 155.428 6.3956 177.104C25.0158 198.781 48.6566 193.255 62.8838 191.079C90.981 186.781 126.239 221.897 165.906 195.376C188.762 180.096 222.801 206.59 236.064 173.7C247.006 146.561 207.466 136.533 219.383 118.274C232.055 98.8567 229.621 75.8477 215.891 64.7057C203.103 54.3257 168.907 54.4587 146.795 68.3927Z" fill="url(#paint0_linear)"/>
<path d="M11.346 82.6578C11.346 82.6578 11.2624 82.4418 11.1484 82.6738C10.1224 84.7598 0.831381 107.358 0.0941807 124.8C0.0941807 124.8 -1.45622 134.821 11.536 134.688C22.3812 134.578 22.0924 125.34 22.0544 122.228C21.91 109.604 11.346 82.6578 11.346 82.6578Z" fill="url(#paint1_linear)"/>
<path d="M11.0497 145.785C10.8407 145.785 10.6697 145.614 10.6697 145.405V88.7355C10.6697 88.5265 10.8407 88.3555 11.0497 88.3555C11.2587 88.3555 11.4297 88.5265 11.4297 88.7355V145.405C11.4297 145.614 11.2587 145.785 11.0497 145.785Z" fill="url(#paint2_linear)"/>
<path d="M201.669 66.4111C201.669 66.4111 201.616 66.2701 201.543 66.4221C200.882 67.7641 194.901 82.3181 194.426 93.5471C194.426 93.5471 193.427 99.9991 201.794 99.9151C208.779 99.8471 208.592 93.8961 208.566 91.8941C208.471 83.7621 201.669 66.4111 201.669 66.4111Z" fill="url(#paint3_linear)"/>
<path d="M201.479 107.056C201.342 107.056 201.236 106.946 201.236 106.813V70.325C201.236 70.188 201.346 70.082 201.479 70.082C201.612 70.082 201.722 70.192 201.722 70.325V106.813C201.722 106.95 201.616 107.056 201.479 107.056Z" fill="url(#paint4_linear)"/>
<path d="M228.307 133.822C231.226 133.822 233.593 131.455 233.593 128.536C233.593 125.617 231.226 123.25 228.307 123.25C225.388 123.25 223.021 125.617 223.021 128.536C223.021 131.455 225.388 133.822 228.307 133.822Z" fill="url(#paint5_linear)"/>
<path d="M228.326 141.606C228.235 141.606 228.163 141.534 228.163 141.443V124.745C228.163 124.654 228.235 124.582 228.326 124.582C228.417 124.582 228.489 124.654 228.489 124.745V141.443C228.489 141.534 228.417 141.606 228.326 141.606Z" fill="url(#paint6_linear)"/>
<path d="M112.863 134.838L192.845 70.2148L143.833 172.188L99.856 182.79L92.385 163.151L112.863 134.838Z" fill="url(#paint7_linear)"/>
<path d="M40.3816 64.093L201.247 12.793L77.747 86.258L40.3816 64.093Z" fill="url(#paint8_linear)"/>
<path d="M77.7469 86.258L90.8379 133.337L201.247 12.793L77.7469 86.258Z" fill="url(#paint9_linear)"/>
<path d="M92.738 97.2383L96.044 140.79L117.206 111.56L92.738 97.2383Z" fill="url(#paint10_linear)"/>
<path d="M144.669 127.637L92.738 97.237L201.247 12.793L144.669 127.637Z" fill="url(#paint11_linear)"/>
<path d="M144.669 127.637L92.738 97.2368L90.838 133.337L77.747 86.2588L40.3816 64.0938V69.5807L73.244 89.8457L86.894 137.84L96.044 140.789L97.45 105.609L146.991 134.603L144.669 127.637Z" fill="url(#paint12_linear)"/>
<path d="M146.991 134.602L202.159 19.196L201.247 12.793L144.669 127.637L146.991 134.602Z" fill="url(#paint13_linear)"/>
<path d="M45.9258 156.443C38.4018 156.443 32.0292 155.079 29.088 151.207C25.8086 146.89 27.1538 140.069 33.0818 130.934C49.6726 105.364 69.74 108.332 87.448 110.95C99.187 112.686 110.271 114.324 118.574 107.108C124.187 102.229 126.923 96.8821 126.706 91.2161C126.277 80.0181 114.459 71.1141 114.341 71.0271C114.003 70.7761 113.934 70.3011 114.185 69.9631C114.436 69.6251 114.911 69.5561 115.249 69.8071C115.758 70.1871 127.77 79.2391 128.23 91.1591C128.466 97.3081 125.555 103.061 119.577 108.256C110.746 115.932 99.323 114.241 87.232 112.455C69.98 109.905 50.425 107.013 34.3624 131.762C28.8182 140.305 27.454 146.541 30.304 150.291C39.4126 162.28 87.399 147.396 87.882 147.244C88.281 147.118 88.71 147.342 88.835 147.741C88.961 148.14 88.737 148.57 88.338 148.695C86.924 149.132 63.345 156.443 45.9258 156.443Z" fill="url(#paint14_linear)"/>
<path d="M91.055 17.5224C91.055 17.5224 84.291 16.561 82.095 19.7568C79.898 22.9526 79.093 31.138 79.093 31.138L84.185 30.86L83.755 40.395L93.149 46.057L106.529 38.654L104.492 30.017L108.767 28.8692C108.767 28.8692 107.494 16.333 101.547 18.1836C98.492 18.5218 97.526 18.4648 97.526 18.4648C97.526 18.4648 96.721 21.102 93.962 20.8778C91.203 20.6536 91.055 17.5224 91.055 17.5224Z" fill="url(#paint15_linear)"/>
<path d="M91.727 13.5807L90.321 20.0293C90.257 20.3333 90.409 20.6411 90.69 20.7589C91.416 21.0629 92.871 21.5797 94.365 21.5797C95.915 21.5797 97.378 20.7057 98.051 20.2383C98.282 20.0787 98.381 19.7785 98.29 19.5049L96.139 12.9271C96.04 12.6269 95.744 12.4483 95.444 12.5015L92.221 13.0905C91.978 13.1399 91.784 13.3299 91.727 13.5807Z" fill="url(#paint16_linear)"/>
<path d="M83.329 18.6406C85.298 17.968 87.965 18.4164 88.076 22.9612C88.186 27.5022 83.858 34.741 85.408 37.261C86.977 39.81 90.337 43.436 92.472 45.499C91.974 47.923 90.633 49.964 90.633 49.964C90.633 49.964 82.759 46.229 79.332 42.486C75.904 38.743 77.633 30.162 79.222 24.0556C80.422 19.45 83.329 18.6406 83.329 18.6406Z" fill="url(#paint17_linear)"/>
<path d="M103.963 18.6406C101.995 17.968 99.327 18.4164 99.217 22.9612C99.107 27.506 103.435 34.741 101.885 37.261C100.315 39.81 96.956 43.436 94.821 45.499C95.318 47.923 96.66 49.964 96.66 49.964C96.66 49.964 104.533 46.229 107.961 42.486C111.389 38.743 109.66 30.162 108.071 24.0556C106.874 19.45 103.963 18.6406 103.963 18.6406Z" fill="url(#paint18_linear)"/>
<path d="M84.287 53.9202H103.401C104.267 53.9202 105.039 53.2442 105.339 52.2292L109.192 39.1912C109.694 37.5002 108.694 35.6992 107.254 35.6992H80.609C79.18 35.6992 78.184 37.4662 78.659 39.1532L82.338 52.1912C82.63 53.2292 83.409 53.9202 84.287 53.9202Z" fill="url(#paint19_linear)"/>
<path d="M83.523 59.9181C83.523 59.9181 83.227 59.2491 83.003 59.1771C82.778 59.1051 79.507 58.9721 78.313 58.6521C77.12 58.3331 73.681 57.8321 72.211 59.2641C70.926 60.5141 70.504 63.4331 72.458 65.1121C73.191 65.7661 73.913 65.9601 76.626 65.8311C79.339 65.7011 83.276 65.7281 84.139 64.4361C84.108 62.2971 83.523 59.9181 83.523 59.9181Z" fill="white"/>
<path d="M86.5561 59.1758C86.5561 59.1758 83.3981 59.9048 82.2731 59.7988C81.1451 59.6928 82.0871 64.3668 82.0871 64.3668C82.0871 64.3668 85.1001 64.5788 87.7641 63.7888C88.6691 60.2058 86.5561 59.1758 86.5561 59.1758Z" fill="url(#paint20_linear)"/>
<path d="M85.427 59.0039L87.069 64.2519C87.069 64.2519 122.325 59.476 117.286 47.7069C113.072 37.873 85.427 59.0039 85.427 59.0039Z" fill="url(#paint21_linear)"/>
<path d="M83.113 59.4112C83.113 59.4112 84.405 59.9322 84.568 61.7822C84.732 63.6372 84.2 64.8792 81.452 65.2212C78.705 65.5632 78.009 65.4342 76.288 65.4802C74.567 65.5222 72.066 65.6932 71.698 62.3262C71.329 58.9592 74.677 58.1002 78.146 58.9592C79.241 59.1762 83.113 59.4112 83.113 59.4112Z" fill="url(#paint22_linear)"/>
<path d="M105.525 59.9158C105.525 59.9158 105.822 59.2478 106.046 59.1748C106.27 59.1028 109.542 58.9698 110.735 58.6508C111.928 58.3318 115.132 57.8038 116.75 59.2248C118.251 60.5428 118.35 63.4578 116.64 65.0648C115.907 65.7188 115.135 65.9578 112.422 65.8288C109.709 65.6998 105.772 65.7268 104.91 64.4348C104.94 62.2948 105.525 59.9158 105.525 59.9158Z" fill="white"/>
<path d="M102.489 59.1758C102.489 59.1758 105.647 59.9048 106.772 59.7988C107.9 59.6928 106.958 64.3668 106.958 64.3668C106.958 64.3668 103.944 64.5788 101.281 63.7888C100.38 60.2058 102.489 59.1758 102.489 59.1758Z" fill="url(#paint23_linear)"/>
<path d="M103.621 59.0039L101.98 64.2519C101.98 64.2519 66.7234 59.476 71.762 47.7069C75.976 37.873 103.621 59.0039 103.621 59.0039Z" fill="url(#paint24_linear)"/>
<path d="M105.935 59.4112C105.935 59.4112 104.643 59.9322 104.48 61.7822C104.317 63.6372 104.849 64.8792 107.596 65.2212C110.343 65.5632 111.039 65.4342 112.76 65.4802C114.482 65.5222 116.982 65.6932 117.351 62.3262C117.719 58.9592 114.371 58.1002 110.902 58.9592C109.808 59.1762 105.935 59.4112 105.935 59.4112Z" fill="url(#paint25_linear)"/>
<path d="M99.8481 11.0022C100.057 10.6944 100.19 9.90782 100.019 9.67982C99.7111 9.42142 99.4151 9.56962 99.1941 9.79382C99.2441 7.91662 99.0801 6.35482 99.0421 5.95962C98.9281 4.80822 97.7881 2.69922 94.0681 2.69922C90.3481 2.69922 89.6261 5.46181 89.6261 5.46181C89.6261 5.46181 89.3831 7.41502 89.4551 9.78622C89.2351 9.56962 88.9421 9.42522 88.6381 9.67982C88.4671 9.91162 88.6001 10.6982 88.8091 11.0022C89.0181 11.31 89.1511 12.0396 89.1891 12.4424C89.2231 12.8262 88.9571 13.8446 89.9381 13.7154C90.5231 16.1208 92.8901 18.1272 94.3571 18.1272C95.9641 18.1272 98.1 16.1056 98.708 13.7116C99.707 13.8522 99.4381 12.8262 99.4721 12.4386C99.5061 12.0358 99.6391 11.3062 99.8481 11.0022Z" fill="url(#paint26_linear)"/>
<path d="M96.7469 1.87668C96.7469 1.87668 96.022 -0.475525 93.236 0.0868749C90.451 0.649275 90.265 2.00207 89.17 2.05527C87.304 2.14647 85.815 4.53667 88.205 7.06747C89.269 8.19607 88.368 8.67868 88.878 9.67808C89.383 10.6775 89.379 11.6465 89.379 11.6465C89.379 11.6465 90.268 8.72427 89.683 7.47787C89.379 6.83567 90.721 6.66087 92.393 6.81287C94.065 6.96487 96.698 6.39868 96.907 5.22828C97.401 7.62608 97.895 7.87688 98.522 8.24168C99.149 8.60648 99.187 11.5021 99.187 11.5021C99.187 11.5021 99.2969 9.37408 99.7339 8.89148C100.095 8.10488 100.798 5.01548 100.004 4.26688C99.21 3.51828 99.8749 1.11668 96.7469 1.87668Z" fill="url(#paint27_linear)"/>
<defs>
<linearGradient id="paint0_linear" x1="119.001" y1="57.3747" x2="119.001" y2="205.374" gradientUnits="userSpaceOnUse">
<stop offset="9.59002e-08" stop-color="#F4F2FB"/>
<stop offset="1" stop-color="#E1EEF5"/>
</linearGradient>
<linearGradient id="paint1_linear" x1="11.0495" y1="134.692" x2="11.0495" y2="82.5648" gradientUnits="userSpaceOnUse">
<stop offset="0.2267" stop-color="#B7ACE0"/>
<stop offset="0.7893" stop-color="#E8E7FA"/>
</linearGradient>
<linearGradient id="paint2_linear" x1="11.0503" y1="88.3545" x2="11.0503" y2="145.785" gradientUnits="userSpaceOnUse">
<stop stop-color="#ECF1FB"/>
<stop offset="0.818" stop-color="#AFB0E7"/>
</linearGradient>
<linearGradient id="paint3_linear" x1="201.478" y1="99.9151" x2="201.478" y2="66.3511" gradientUnits="userSpaceOnUse">
<stop offset="0.2267" stop-color="#CCD4F4"/>
<stop offset="0.7893" stop-color="#ECF1FB"/>
</linearGradient>
<linearGradient id="paint4_linear" x1="201.479" y1="70.079" x2="201.479" y2="107.057" gradientUnits="userSpaceOnUse">
<stop stop-color="#ECF1FB"/>
<stop offset="1" stop-color="#A6A8E2"/>
</linearGradient>
<linearGradient id="paint5_linear" x1="228.307" y1="133.825" x2="228.307" y2="123.25" gradientUnits="userSpaceOnUse">
<stop offset="0.2267" stop-color="#AFB0E7"/>
<stop offset="1" stop-color="#ECF1FB"/>
</linearGradient>
<linearGradient id="paint6_linear" x1="228.326" y1="124.584" x2="228.326" y2="141.606" gradientUnits="userSpaceOnUse">
<stop offset="9.59002e-08" stop-color="#DDE1F6"/>
<stop offset="0.818" stop-color="#A6A8E2"/>
</linearGradient>
<linearGradient id="paint7_linear" x1="142.615" y1="182.789" x2="142.615" y2="70.2159" gradientUnits="userSpaceOnUse">
<stop stop-color="#CDD5ED"/>
<stop offset="0.8657" stop-color="#EAF0F8"/>
</linearGradient>
<linearGradient id="paint8_linear" x1="93.422" y1="11.0505" x2="148.205" y2="65.833" gradientUnits="userSpaceOnUse">
<stop offset="0.1157" stop-color="#DEE4FF"/>
<stop offset="0.8472" stop-color="#C6D5F4"/>
</linearGradient>
<linearGradient id="paint9_linear" x1="139.497" y1="133.335" x2="139.497" y2="12.7922" gradientUnits="userSpaceOnUse">
<stop stop-color="#C8CBF2"/>
<stop offset="1" stop-color="#AFB0E7"/>
</linearGradient>
<linearGradient id="paint10_linear" x1="108.642" y1="128.193" x2="85.211" y2="104.762" gradientUnits="userSpaceOnUse">
<stop stop-color="#C8CBF2"/>
<stop offset="1" stop-color="#AFB0E7"/>
</linearGradient>
<linearGradient id="paint11_linear" x1="92.736" y1="70.214" x2="201.246" y2="70.214" gradientUnits="userSpaceOnUse">
<stop offset="0.1157" stop-color="#DEE4FF"/>
<stop offset="0.8472" stop-color="#C6D5F4"/>
</linearGradient>
<linearGradient id="paint12_linear" x1="132.319" y1="149.275" x2="43.759" y2="60.7148" gradientUnits="userSpaceOnUse">
<stop offset="0.1157" stop-color="#DEE4FF"/>
<stop offset="0.8472" stop-color="#BACBEE"/>
</linearGradient>
<linearGradient id="paint13_linear" x1="207.273" y1="16.2719" x2="140.964" y2="131.122" gradientUnits="userSpaceOnUse">
<stop stop-color="#C8CBF2"/>
<stop offset="1" stop-color="#AFB0E7"/>
</linearGradient>
<linearGradient id="paint14_linear" x1="99.484" y1="137.661" x2="61.9213" y2="100.098" gradientUnits="userSpaceOnUse">
<stop offset="0.1157" stop-color="#DEE4FF"/>
<stop offset="0.8472" stop-color="#BACBEE"/>
</linearGradient>
<linearGradient id="paint15_linear" x1="93.93" y1="46.058" x2="93.93" y2="17.3872" gradientUnits="userSpaceOnUse">
<stop stop-color="#C3D5FD"/>
<stop offset="1" stop-color="#1A90FC"/>
</linearGradient>
<linearGradient id="paint16_linear" x1="94.316" y1="12.4964" x2="94.316" y2="21.579" gradientUnits="userSpaceOnUse">
<stop stop-color="#F4AE98"/>
<stop offset="1" stop-color="#FAD1BB"/>
</linearGradient>
<linearGradient id="paint17_linear" x1="84.902" y1="49.959" x2="84.902" y2="18.3863" gradientUnits="userSpaceOnUse">
<stop stop-color="#C3D5FD"/>
<stop offset="1" stop-color="#1A90FC"/>
</linearGradient>
<linearGradient id="paint18_linear" x1="102.358" y1="49.977" x2="102.358" y2="18.4043" gradientUnits="userSpaceOnUse">
<stop stop-color="#C3D5FD"/>
<stop offset="1" stop-color="#1A90FC"/>
</linearGradient>
<linearGradient id="paint19_linear" x1="93.93" y1="35.7012" x2="93.93" y2="53.9212" gradientUnits="userSpaceOnUse">
<stop stop-color="#275C89"/>
<stop offset="1" stop-color="#013F7C"/>
</linearGradient>
<linearGradient id="paint20_linear" x1="87.9911" y1="61.7848" x2="81.7201" y2="61.7848" gradientUnits="userSpaceOnUse">
<stop stop-color="#F4B9A4"/>
<stop offset="0.652" stop-color="#FAD1BB"/>
</linearGradient>
<linearGradient id="paint21_linear" x1="85.427" y1="54.6749" x2="117.778" y2="54.6749" gradientUnits="userSpaceOnUse">
<stop stop-color="#18264B"/>
<stop offset="0.652" stop-color="#2D3C65"/>
</linearGradient>
<linearGradient id="paint22_linear" x1="78.133" y1="58.6512" x2="78.133" y2="65.4982" gradientUnits="userSpaceOnUse">
<stop stop-color="#FFDB80"/>
<stop offset="1" stop-color="#FFBB24"/>
</linearGradient>
<linearGradient id="paint23_linear" x1="101.057" y1="61.7848" x2="107.328" y2="61.7848" gradientUnits="userSpaceOnUse">
<stop stop-color="#F4B9A4"/>
<stop offset="0.652" stop-color="#FAD1BB"/>
</linearGradient>
<linearGradient id="paint24_linear" x1="71.27" y1="54.6749" x2="103.621" y2="54.6749" gradientUnits="userSpaceOnUse">
<stop stop-color="#445677"/>
<stop offset="1" stop-color="#293861"/>
</linearGradient>
<linearGradient id="paint25_linear" x1="110.915" y1="58.6512" x2="110.915" y2="65.4982" gradientUnits="userSpaceOnUse">
<stop stop-color="#FFDB80"/>
<stop offset="1" stop-color="#FFBB24"/>
</linearGradient>
<linearGradient id="paint26_linear" x1="100.096" y1="10.4108" x2="88.5561" y2="10.4108" gradientUnits="userSpaceOnUse">
<stop stop-color="#F4B9A4"/>
<stop offset="0.652" stop-color="#FAD1BB"/>
</linearGradient>
<linearGradient id="paint27_linear" x1="86.968" y1="5.82468" x2="100.366" y2="5.82468" gradientUnits="userSpaceOnUse">
<stop stop-color="#4F5C7C"/>
<stop offset="1" stop-color="#274168"/>
</linearGradient>
</defs>
</svg>
