<svg width="260" height="195" viewBox="0 0 260 195" fill="none" xmlns="http://www.w3.org/2000/svg">
<path d="M160.361 62.8525C146.369 70.5955 116.331 71.4954 94.294 62.2854C72.2573 53.0754 31.5712 54.2634 20.5509 71.1994C9.5306 88.1344 34.1129 104.77 25.2113 116.951C16.3098 129.132 -13.3561 146.361 6.9888 167.157C27.3337 187.952 53.1559 182.653 68.6981 180.564C99.392 176.441 137.909 210.133 181.242 184.688C206.211 170.027 243.396 195.447 257.885 163.89C269.839 137.851 226.644 128.229 239.662 110.711C253.505 92.0814 250.847 70.0055 235.848 59.3145C221.877 49.3555 184.521 49.4834 160.361 62.8525Z" fill="url(#paint0_linear)"/>
<path d="M76.4658 75.6013C92.466 67.0903 118.098 53.6562 118.098 53.6562L220.827 68.0343L191.962 89.3362L216.168 113.121C216.168 113.121 229.289 127.836 212.959 142.713C189.455 138.401 172.422 119.22 172.422 119.22L137.553 125.895L95.321 116.007L73.6042 92.7563C68.6816 87.4903 70.1001 78.9853 76.4658 75.6013Z" fill="url(#paint1_linear)"/>
<path d="M31.0559 58.0771C31.0559 58.0771 30.9787 57.8771 30.8733 58.0911C29.9253 60.0191 21.3406 80.8991 20.6594 97.0161C20.6594 97.0161 19.2268 106.275 31.2315 106.152C41.2523 106.05 40.9855 97.5141 40.9504 94.6391C40.8134 82.9751 31.0559 58.0771 31.0559 58.0771Z" fill="url(#paint2_linear)"/>
<path d="M30.7821 116.409C30.589 116.409 30.431 116.251 30.431 116.058V63.6958C30.431 63.5028 30.589 63.3438 30.7821 63.3438C30.9753 63.3438 31.1333 63.5028 31.1333 63.6958V116.058C31.1333 116.254 30.9753 116.409 30.7821 116.409Z" fill="url(#paint3_linear)"/>
<path d="M206.912 43.0664C206.912 43.0664 206.863 42.9364 206.797 43.0774C206.186 44.3164 200.659 57.7644 200.22 68.1394C200.22 68.1394 199.297 74.1014 207.028 74.0244C213.482 73.9614 213.31 68.4624 213.285 66.6124C213.194 59.0984 206.912 43.0664 206.912 43.0664Z" fill="url(#paint4_linear)"/>
<path d="M206.733 80.6278C206.607 80.6278 206.509 80.5258 206.509 80.4028V46.6888C206.509 46.5628 206.61 46.4648 206.733 46.4648C206.86 46.4648 206.958 46.5658 206.958 46.6888V80.4028C206.961 80.5258 206.86 80.6278 206.733 80.6278Z" fill="url(#paint5_linear)"/>
<path d="M231.526 105.354C234.223 105.354 236.41 103.167 236.41 100.47C236.41 97.7719 234.223 95.5859 231.526 95.5859C228.828 95.5859 226.642 97.7719 226.642 100.47C226.642 103.167 228.828 105.354 231.526 105.354Z" fill="url(#paint6_linear)"/>
<path d="M231.54 112.546C231.455 112.546 231.389 112.479 231.389 112.395V96.9674C231.389 96.8834 231.455 96.8164 231.54 96.8164C231.624 96.8164 231.691 96.8834 231.691 96.9674V112.395C231.691 112.479 231.624 112.546 231.54 112.546Z" fill="url(#paint7_linear)"/>
<path d="M211.6 125.791L182.085 96.1282C188.528 86.3462 192.285 74.6442 192.285 62.0772C192.285 27.8472 164.438 0 130.208 0C95.977 0 68.1302 27.8472 68.1302 62.0772C68.1302 96.3072 95.977 124.154 130.208 124.154C143.136 124.154 155.154 120.18 165.105 113.389L194.437 142.869C196.804 145.246 198.156 148.659 201.263 148.659C204.349 148.659 208.471 147.535 212.011 143.701C216.551 138.789 216.315 130.531 211.6 125.791ZM92.347 62.0772C92.347 41.2002 109.334 24.2132 130.211 24.2132C151.088 24.2132 168.075 41.2002 168.075 62.0772C168.075 82.9542 151.088 99.9412 130.211 99.9412C109.33 99.9412 92.347 82.9542 92.347 62.0772Z" fill="#AFB0E7"/>
<path d="M206.965 128.689L177.45 99.0273C183.893 89.2453 187.65 77.5423 187.65 64.9793C187.65 30.7493 159.803 2.90234 125.573 2.90234C91.343 2.90234 63.4956 30.7493 63.4956 64.9793C63.4956 99.2103 91.343 127.057 125.573 127.057C138.501 127.057 150.52 123.082 160.47 116.291L189.803 145.771C192.169 148.148 195.276 149.339 198.384 149.339C201.47 149.339 204.56 148.166 206.923 145.813C211.659 141.094 211.681 133.429 206.965 128.689ZM87.709 64.9763C87.709 44.0993 104.696 27.1123 125.573 27.1123C146.45 27.1123 163.437 44.0993 163.437 64.9763C163.437 85.8533 146.45 102.84 125.573 102.84C104.696 102.84 87.709 85.8573 87.709 64.9763Z" fill="url(#paint8_linear)"/>
<path d="M120.425 50.0365C120.425 50.0365 116.363 51.0165 115.58 54.5315C113.94 54.9315 108.421 57.9015 112.588 64.4645C114.692 67.0375 115.011 67.4735 115.011 67.4735L127.051 63.9195V48.7305L120.425 50.0365Z" fill="url(#paint9_linear)"/>
<path d="M124.446 58.3078C124.446 58.3078 117.701 57.3738 115.51 60.4738C113.319 63.5738 112.518 71.5058 112.518 71.5058L117.595 71.2388L117.167 80.4808L126.535 85.9718L139.877 78.7948L137.848 70.4208L142.11 69.3078C142.11 69.3078 140.839 57.1558 134.909 58.9498C131.865 59.2768 130.903 59.2198 130.903 59.2198C130.903 59.2198 130.102 61.7768 127.349 61.5588C124.597 61.3408 124.446 58.3078 124.446 58.3078Z" fill="url(#paint10_linear)"/>
<path d="M125.12 54.4861L123.719 60.7351C123.652 61.0301 123.807 61.3291 124.084 61.4411C124.808 61.7361 126.258 62.2381 127.75 62.2381C129.295 62.2381 130.755 61.3921 131.426 60.9391C131.658 60.7851 131.753 60.4931 131.665 60.2301L129.519 53.8541C129.421 53.5621 129.126 53.3901 128.824 53.4431L125.612 54.0121C125.369 54.0571 125.173 54.2431 125.12 54.4861Z" fill="url(#paint11_linear)"/>
<path d="M116.746 59.387C118.708 58.734 121.37 59.172 121.479 63.575C121.588 67.978 117.272 74.997 118.817 77.438C120.383 79.913 123.733 83.424 125.861 85.425C125.366 87.778 124.028 89.755 124.028 89.755C124.028 89.755 116.177 86.131 112.757 82.504C109.337 78.877 111.065 70.556 112.648 64.636C113.842 60.173 116.746 59.387 116.746 59.387Z" fill="url(#paint12_linear)"/>
<path d="M137.318 59.387C135.355 58.734 132.694 59.172 132.585 63.575C132.476 67.978 136.791 74.997 135.246 77.438C133.68 79.913 130.331 83.424 128.203 85.425C128.698 87.778 130.036 89.755 130.036 89.755C130.036 89.755 137.887 86.131 141.307 82.504C144.726 78.877 142.999 70.556 141.415 64.636C140.222 60.173 137.318 59.387 137.318 59.387Z" fill="url(#paint13_linear)"/>
<path d="M128.726 53.4403C128.726 53.4403 130.151 57.7523 129.793 60.1463C129.435 62.5413 129.937 65.9823 132.964 67.0323C135.99 68.0823 138.876 66.3093 139.909 63.2993C140.941 60.2903 139.944 58.1173 137.416 56.1583C137.844 54.3113 135.762 50.9543 132.058 49.7573C128.427 49.2513 128.726 53.4403 128.726 53.4403Z" fill="url(#paint14_linear)"/>
<path d="M123.238 47.8951C123.238 47.8951 120.924 49.5271 120.973 51.8411C121.022 54.1551 122.88 53.7231 122.88 53.7231C122.88 53.7231 123.442 57.1501 127.093 57.2701C130.745 57.3851 131.261 53.7341 131.261 53.7341C131.261 53.7341 133.094 53.9661 133.136 51.8591C133.178 49.7521 131.577 46.9261 129.986 46.1221C128.396 45.3141 124.484 46.2871 123.238 47.8951Z" fill="url(#paint15_linear)"/>
<path d="M125.59 47.1729C125.59 47.1729 124.86 49.2759 123.024 49.6379C121.187 49.9989 121.026 50.9369 121.026 51.8149C121.026 52.4609 121.244 53.0749 121.398 53.3699C120.408 52.8259 119.056 51.5269 119.916 47.9449C120.749 44.4869 123.308 42.8049 126.756 42.8579C129.642 42.0959 133.915 45.9609 133.543 50.9889C132.929 50.1749 132.36 49.9849 131.932 49.8379C131.503 49.6939 130.615 48.8049 130.506 47.9169C129.762 48.0789 127.142 48.4399 125.59 47.1729Z" fill="url(#paint16_linear)"/>
<path d="M117.697 93.5986H136.759C137.623 93.5986 138.396 92.9456 138.694 91.9586L142.535 79.3186C143.034 77.6786 142.037 75.9336 140.601 75.9336H114.028C112.606 75.9336 111.609 77.6476 112.083 79.2836L115.752 91.9236C116.044 92.9276 116.823 93.5986 117.697 93.5986Z" fill="url(#paint17_linear)"/>
<path d="M116.935 99.4101C116.935 99.4101 116.64 98.7601 116.416 98.6901C116.188 98.6201 112.929 98.4901 111.739 98.1811C110.549 97.8721 107.122 97.3841 105.651 98.7741C104.373 99.9861 103.948 102.816 105.896 104.445C106.627 105.08 107.346 105.266 110.054 105.14C112.761 105.014 116.686 105.042 117.546 103.788C117.522 101.717 116.935 99.4101 116.935 99.4101Z" fill="white"/>
<path d="M119.962 98.6953C119.962 98.6953 116.816 99.4013 115.689 99.2993C114.565 99.1943 115.506 103.73 115.506 103.73C115.506 103.73 118.512 103.937 121.17 103.168C122.065 99.6963 119.962 98.6953 119.962 98.6953Z" fill="url(#paint18_linear)"/>
<path d="M118.835 98.5299L120.471 103.618C120.471 103.618 155.628 98.9859 150.604 87.5789C146.401 78.0389 118.835 98.5299 118.835 98.5299Z" fill="url(#paint19_linear)"/>
<path d="M116.528 98.9235C116.528 98.9235 117.817 99.4295 117.978 101.223C118.143 103.021 117.61 104.225 114.871 104.559C112.132 104.892 111.437 104.766 109.72 104.808C108.003 104.85 105.51 105.015 105.141 101.75C104.773 98.4845 108.112 97.6525 111.574 98.4845C112.666 98.6915 116.528 98.9235 116.528 98.9235Z" fill="url(#paint20_linear)"/>
<path d="M138.876 99.4121C138.876 99.4121 139.171 98.7621 139.396 98.6921C139.624 98.6211 142.883 98.4921 144.073 98.1831C145.263 97.8741 148.458 97.3611 150.073 98.7371C151.569 100.015 151.667 102.842 149.965 104.401C149.234 105.036 148.465 105.268 145.758 105.142C143.051 105.015 139.126 105.043 138.265 103.79C138.29 101.718 138.876 99.4121 138.876 99.4121Z" fill="white"/>
<path d="M135.85 98.6953C135.85 98.6953 138.996 99.4013 140.123 99.2993C141.247 99.1943 140.306 103.73 140.306 103.73C140.306 103.73 137.3 103.937 134.642 103.168C133.747 99.6963 135.85 98.6953 135.85 98.6953Z" fill="url(#paint21_linear)"/>
<path d="M136.977 98.5299L135.341 103.618C135.341 103.618 100.184 98.9859 105.208 87.5789C109.411 78.0389 136.977 98.5299 136.977 98.5299Z" fill="url(#paint22_linear)"/>
<path d="M139.284 98.9235C139.284 98.9235 137.995 99.4295 137.834 101.223C137.669 103.021 138.202 104.225 140.941 104.559C143.68 104.892 144.375 104.766 146.092 104.808C147.809 104.85 150.302 105.015 150.67 101.75C151.039 98.4845 147.7 97.6525 144.238 98.4845C143.146 98.6915 139.284 98.9235 139.284 98.9235Z" fill="url(#paint23_linear)"/>
<defs>
<linearGradient id="paint0_linear" x1="130" y1="52.2815" x2="130" y2="194.281" gradientUnits="userSpaceOnUse">
<stop offset="9.59002e-08" stop-color="#DCEAFF"/>
<stop offset="1" stop-color="#E1EEF5"/>
</linearGradient>
<linearGradient id="paint1_linear" x1="129.3" y1="135.626" x2="181.45" y2="45.3002" gradientUnits="userSpaceOnUse">
<stop offset="0.3396" stop-color="#B0B9E1"/>
<stop offset="0.8657" stop-color="#EAF0F8"/>
</linearGradient>
<linearGradient id="paint2_linear" x1="30.7802" y1="106.156" x2="30.7802" y2="57.9921" gradientUnits="userSpaceOnUse">
<stop offset="0.2267" stop-color="#B7ACE0"/>
<stop offset="0.7893" stop-color="#E8E7FA"/>
</linearGradient>
<linearGradient id="paint3_linear" x1="30.7809" y1="63.3438" x2="30.7809" y2="116.41" gradientUnits="userSpaceOnUse">
<stop stop-color="#ECF1FB"/>
<stop offset="0.818" stop-color="#AFB0E7"/>
</linearGradient>
<linearGradient id="paint4_linear" x1="206.735" y1="74.0244" x2="206.735" y2="43.0124" gradientUnits="userSpaceOnUse">
<stop offset="0.2267" stop-color="#CCD4F4"/>
<stop offset="0.7893" stop-color="#ECF1FB"/>
</linearGradient>
<linearGradient id="paint5_linear" x1="206.735" y1="46.4588" x2="206.735" y2="80.6268" gradientUnits="userSpaceOnUse">
<stop stop-color="#ECF1FB"/>
<stop offset="1" stop-color="#A6A8E2"/>
</linearGradient>
<linearGradient id="paint6_linear" x1="231.524" y1="105.354" x2="231.524" y2="95.5829" gradientUnits="userSpaceOnUse">
<stop offset="0.2267" stop-color="#AFB0E7"/>
<stop offset="1" stop-color="#ECF1FB"/>
</linearGradient>
<linearGradient id="paint7_linear" x1="231.541" y1="96.8184" x2="231.541" y2="112.547" gradientUnits="userSpaceOnUse">
<stop offset="9.59002e-08" stop-color="#DDE1F6"/>
<stop offset="0.818" stop-color="#A6A8E2"/>
</linearGradient>
<linearGradient id="paint8_linear" x1="63.4971" y1="76.1183" x2="210.488" y2="76.1183" gradientUnits="userSpaceOnUse">
<stop offset="0.1157" stop-color="#CED3F4"/>
<stop offset="0.8472" stop-color="#C6D5F4"/>
</linearGradient>
<linearGradient id="paint9_linear" x1="119.058" y1="67.4715" x2="119.058" y2="48.7325" gradientUnits="userSpaceOnUse">
<stop stop-color="#4F5C7C"/>
<stop offset="1" stop-color="#274168"/>
</linearGradient>
<linearGradient id="paint10_linear" x1="127.313" y1="85.9738" x2="127.313" y2="58.1758" gradientUnits="userSpaceOnUse">
<stop stop-color="#C3D5FD"/>
<stop offset="1" stop-color="#1A90FC"/>
</linearGradient>
<linearGradient id="paint11_linear" x1="127.699" y1="53.4341" x2="127.699" y2="62.2401" gradientUnits="userSpaceOnUse">
<stop stop-color="#F4AE98"/>
<stop offset="1" stop-color="#FAD1BB"/>
</linearGradient>
<linearGradient id="paint12_linear" x1="118.308" y1="89.752" x2="118.309" y2="59.141" gradientUnits="userSpaceOnUse">
<stop stop-color="#C3D5FD"/>
<stop offset="1" stop-color="#1A90FC"/>
</linearGradient>
<linearGradient id="paint13_linear" x1="135.704" y1="89.779" x2="135.704" y2="59.168" gradientUnits="userSpaceOnUse">
<stop stop-color="#C3D5FD"/>
<stop offset="1" stop-color="#1A90FC"/>
</linearGradient>
<linearGradient id="paint14_linear" x1="134.518" y1="67.3383" x2="134.518" y2="49.7163" gradientUnits="userSpaceOnUse">
<stop stop-color="#4F5C7C"/>
<stop offset="1" stop-color="#274168"/>
</linearGradient>
<linearGradient id="paint15_linear" x1="127.247" y1="45.7901" x2="126.881" y2="57.2621" gradientUnits="userSpaceOnUse">
<stop stop-color="#F4B9A4"/>
<stop offset="0.652" stop-color="#FAD1BB"/>
</linearGradient>
<linearGradient id="paint16_linear" x1="126.606" y1="53.3649" x2="126.606" y2="42.7579" gradientUnits="userSpaceOnUse">
<stop stop-color="#4F5C7C"/>
<stop offset="1" stop-color="#274168"/>
</linearGradient>
<linearGradient id="paint17_linear" x1="127.313" y1="75.9356" x2="127.313" y2="93.6006" gradientUnits="userSpaceOnUse">
<stop stop-color="#275C89"/>
<stop offset="1" stop-color="#013F7C"/>
</linearGradient>
<linearGradient id="paint18_linear" x1="121.391" y1="101.226" x2="115.138" y2="101.226" gradientUnits="userSpaceOnUse">
<stop stop-color="#F4B9A4"/>
<stop offset="0.652" stop-color="#FAD1BB"/>
</linearGradient>
<linearGradient id="paint19_linear" x1="118.834" y1="94.3299" x2="151.096" y2="94.3299" gradientUnits="userSpaceOnUse">
<stop stop-color="#18264B"/>
<stop offset="0.652" stop-color="#2D3C65"/>
</linearGradient>
<linearGradient id="paint20_linear" x1="111.56" y1="98.1845" x2="111.56" y2="104.822" gradientUnits="userSpaceOnUse">
<stop stop-color="#FFDB80"/>
<stop offset="1" stop-color="#FFBB24"/>
</linearGradient>
<linearGradient id="paint21_linear" x1="134.421" y1="101.226" x2="140.675" y2="101.226" gradientUnits="userSpaceOnUse">
<stop stop-color="#F4B9A4"/>
<stop offset="0.652" stop-color="#FAD1BB"/>
</linearGradient>
<linearGradient id="paint22_linear" x1="104.717" y1="94.3299" x2="136.978" y2="94.3299" gradientUnits="userSpaceOnUse">
<stop stop-color="#445677"/>
<stop offset="1" stop-color="#293861"/>
</linearGradient>
<linearGradient id="paint23_linear" x1="144.252" y1="98.1845" x2="144.252" y2="104.822" gradientUnits="userSpaceOnUse">
<stop stop-color="#FFDB80"/>
<stop offset="1" stop-color="#FFBB24"/>
</linearGradient>
</defs>
</svg>
