<svg width="206" height="206" viewBox="0 0 206 206" fill="none" xmlns="http://www.w3.org/2000/svg">
<rect width="206" height="206" rx="15" fill="white"/>
<path d="M130.519 72.7109C130.451 72.6896 130.39 72.6483 130.345 72.5923C130.3 72.5362 130.273 72.468 130.268 72.3965C129.459 59.7465 118.902 49.7109 106.046 49.7109C95.8754 49.7109 86.7742 56.1887 83.2883 65.5055C83.2625 65.5714 83.2183 65.6284 83.1609 65.6698C83.1036 65.7113 83.0355 65.7353 82.9648 65.7391C71.7254 66.3141 62.75 75.6309 62.75 86.9961C62.75 98.7387 72.3094 108.289 84.0699 108.289H125.021C135.074 108.289 143.25 100.122 143.25 90.0777C143.253 86.2049 142.02 82.4321 139.73 79.3086C137.44 76.1851 134.213 73.8738 130.519 72.7109ZM113.835 84.777H106.594C106.498 84.777 106.407 84.8148 106.34 84.8822C106.272 84.9496 106.234 85.041 106.234 85.1363V101.605C106.234 101.7 106.197 101.791 106.129 101.859C106.062 101.926 105.97 101.964 105.875 101.964H100.125C100.03 101.964 99.9383 101.926 99.8709 101.859C99.8035 101.791 99.7656 101.7 99.7656 101.605V85.1363C99.7656 85.041 99.7278 84.9496 99.6604 84.8822C99.593 84.8148 99.5016 84.777 99.4062 84.777H92.1648C92.1003 84.7763 92.0371 84.7583 91.9819 84.7247C91.9267 84.6912 91.8816 84.6434 91.8512 84.5865C91.8209 84.5295 91.8065 84.4653 91.8095 84.4008C91.8125 84.3363 91.8328 84.2738 91.8684 84.2199L102.704 67.6617C102.735 67.6116 102.779 67.5703 102.831 67.5417C102.883 67.5131 102.941 67.4981 103 67.4981C103.059 67.4981 103.117 67.5131 103.169 67.5417C103.221 67.5703 103.265 67.6116 103.296 67.6617L114.132 84.2199C114.167 84.2738 114.187 84.3363 114.19 84.4008C114.194 84.4653 114.179 84.5295 114.149 84.5865C114.118 84.6434 114.073 84.6912 114.018 84.7247C113.963 84.7583 113.9 84.7763 113.835 84.777Z" fill="#55A7AE"/>
<path d="M24.2378 143V132.336H27.248C28.1758 132.336 28.9961 132.541 29.709 132.951C30.4219 133.361 30.9712 133.945 31.3569 134.702C31.7476 135.458 31.9453 136.328 31.9502 137.309V137.99C31.9502 138.996 31.7549 139.877 31.3643 140.634C30.9785 141.391 30.4243 141.972 29.7017 142.377C28.9839 142.783 28.1465 142.99 27.1895 143H24.2378ZM25.644 133.493V141.85H27.1235C28.2075 141.85 29.0498 141.513 29.6504 140.839C30.2559 140.166 30.5586 139.206 30.5586 137.961V137.338C30.5586 136.127 30.2729 135.188 29.7017 134.519C29.1353 133.845 28.3296 133.503 27.2847 133.493H25.644ZM37.6997 136.291C37.4946 136.257 37.2725 136.24 37.0332 136.24C36.1445 136.24 35.5415 136.618 35.2241 137.375V143H33.8691V135.075H35.1875L35.2095 135.991C35.6538 135.283 36.2837 134.929 37.0991 134.929C37.3628 134.929 37.563 134.963 37.6997 135.031V136.291ZM43.5518 143C43.4736 142.844 43.4102 142.565 43.3613 142.165C42.7314 142.819 41.9795 143.146 41.1055 143.146C40.3242 143.146 39.6821 142.927 39.1792 142.487C38.6812 142.043 38.4321 141.481 38.4321 140.803C38.4321 139.978 38.7446 139.338 39.3696 138.884C39.9995 138.425 40.8833 138.195 42.021 138.195H43.3394V137.573C43.3394 137.099 43.1978 136.723 42.9146 136.445C42.6313 136.162 42.2139 136.02 41.6621 136.02C41.1787 136.02 40.7734 136.142 40.4463 136.386C40.1191 136.63 39.9556 136.926 39.9556 137.272H38.5933C38.5933 136.877 38.7324 136.496 39.0107 136.13C39.2939 135.759 39.6748 135.466 40.1533 135.251C40.6367 135.036 41.1665 134.929 41.7427 134.929C42.6558 134.929 43.3711 135.158 43.8887 135.617C44.4062 136.071 44.6748 136.699 44.6943 137.5V141.147C44.6943 141.875 44.7871 142.453 44.9727 142.883V143H43.5518ZM41.3032 141.967C41.728 141.967 42.1309 141.857 42.5117 141.638C42.8926 141.418 43.1685 141.132 43.3394 140.781V139.155H42.2773C40.6172 139.155 39.7871 139.641 39.7871 140.612C39.7871 141.037 39.9287 141.369 40.2119 141.608C40.4951 141.848 40.8589 141.967 41.3032 141.967ZM46.4961 138.972C46.4961 137.736 46.7817 136.755 47.353 136.027C47.9243 135.295 48.6812 134.929 49.6235 134.929C50.5903 134.929 51.3447 135.271 51.8867 135.954L51.9526 135.075H53.1904V142.81C53.1904 143.835 52.8853 144.643 52.2749 145.234C51.6694 145.825 50.854 146.12 49.8286 146.12C49.2573 146.12 48.6982 145.998 48.1514 145.754C47.6045 145.51 47.187 145.175 46.8989 144.75L47.6021 143.938C48.1831 144.655 48.8936 145.014 49.7334 145.014C50.3926 145.014 50.9053 144.829 51.2715 144.458C51.6426 144.086 51.8281 143.564 51.8281 142.89V142.209C51.2861 142.834 50.5464 143.146 49.6089 143.146C48.6812 143.146 47.9292 142.773 47.353 142.026C46.7817 141.279 46.4961 140.261 46.4961 138.972ZM47.8584 139.125C47.8584 140.019 48.0415 140.722 48.4077 141.235C48.7739 141.743 49.2866 141.997 49.9458 141.997C50.8003 141.997 51.4277 141.608 51.8281 140.832V137.214C51.4131 136.457 50.7905 136.079 49.9604 136.079C49.3013 136.079 48.7861 136.335 48.415 136.848C48.0439 137.36 47.8584 138.12 47.8584 139.125ZM58.6763 140.136C58.6763 139.624 58.8179 139.152 59.1011 138.723C59.3892 138.293 59.936 137.792 60.7417 137.221C60.2681 136.645 59.9507 136.181 59.7896 135.83C59.6284 135.478 59.5479 135.129 59.5479 134.782C59.5479 133.972 59.7871 133.337 60.2656 132.878C60.7441 132.419 61.3936 132.189 62.2139 132.189C62.9463 132.189 63.5518 132.404 64.0303 132.834C64.5088 133.259 64.748 133.796 64.748 134.445C64.748 134.875 64.6382 135.273 64.4185 135.639C64.2036 136 63.8252 136.381 63.2832 136.782L62.4995 137.36L64.8726 140.195C65.2046 139.56 65.3706 138.854 65.3706 138.078H66.5938C66.5938 139.323 66.2935 140.356 65.6929 141.176L67.2163 143H65.5903L64.8799 142.158C64.5186 142.48 64.0938 142.727 63.6055 142.897C63.1221 143.063 62.6289 143.146 62.126 143.146C61.0859 143.146 60.251 142.871 59.6211 142.319C58.9912 141.767 58.6763 141.04 58.6763 140.136ZM62.126 142.041C62.8438 142.041 63.5005 141.767 64.0962 141.22L61.4961 138.107L61.2544 138.283C60.439 138.884 60.0312 139.501 60.0312 140.136C60.0312 140.712 60.2168 141.174 60.5879 141.521C60.9639 141.867 61.4766 142.041 62.126 142.041ZM60.9028 134.738C60.9028 135.207 61.1909 135.793 61.7671 136.496L62.6313 135.888C62.9634 135.654 63.1904 135.432 63.3125 135.222C63.4346 135.007 63.4956 134.748 63.4956 134.445C63.4956 134.118 63.3735 133.847 63.1294 133.632C62.8853 133.413 62.5776 133.303 62.2065 133.303C61.8062 133.303 61.4888 133.439 61.2544 133.713C61.02 133.981 60.9028 134.323 60.9028 134.738ZM72.2261 143V132.336H75.2363C76.1641 132.336 76.9844 132.541 77.6973 132.951C78.4102 133.361 78.9595 133.945 79.3452 134.702C79.7358 135.458 79.9336 136.328 79.9385 137.309V137.99C79.9385 138.996 79.7432 139.877 79.3525 140.634C78.9668 141.391 78.4126 141.972 77.6899 142.377C76.9722 142.783 76.1348 142.99 75.1777 143H72.2261ZM73.6323 133.493V141.85H75.1118C76.1958 141.85 77.0381 141.513 77.6387 140.839C78.2441 140.166 78.5469 139.206 78.5469 137.961V137.338C78.5469 136.127 78.2612 135.188 77.6899 134.519C77.1235 133.845 76.3179 133.503 75.2729 133.493H73.6323ZM85.688 136.291C85.4829 136.257 85.2607 136.24 85.0215 136.24C84.1328 136.24 83.5298 136.618 83.2124 137.375V143H81.8574V135.075H83.1758L83.1978 135.991C83.6421 135.283 84.272 134.929 85.0874 134.929C85.3511 134.929 85.5513 134.963 85.688 135.031V136.291ZM86.4351 138.964C86.4351 138.188 86.5864 137.49 86.8892 136.87C87.1968 136.25 87.6216 135.771 88.1636 135.434C88.7104 135.097 89.333 134.929 90.0312 134.929C91.1104 134.929 91.9819 135.302 92.646 136.049C93.3149 136.796 93.6494 137.79 93.6494 139.03V139.125C93.6494 139.897 93.5005 140.59 93.2026 141.206C92.9097 141.816 92.4873 142.292 91.9355 142.634C91.3887 142.976 90.7588 143.146 90.0459 143.146C88.9717 143.146 88.1001 142.773 87.4312 142.026C86.7671 141.279 86.4351 140.29 86.4351 139.06V138.964ZM87.7974 139.125C87.7974 140.004 88 140.71 88.4053 141.242C88.8154 141.774 89.3623 142.041 90.0459 142.041C90.7344 142.041 91.2812 141.772 91.6865 141.235C92.0918 140.693 92.2944 139.936 92.2944 138.964C92.2944 138.095 92.0869 137.392 91.6719 136.855C91.2617 136.313 90.7148 136.042 90.0312 136.042C89.3623 136.042 88.8228 136.308 88.4126 136.84C88.0024 137.373 87.7974 138.134 87.7974 139.125ZM102.043 139.125C102.043 140.332 101.767 141.303 101.215 142.041C100.664 142.778 99.9165 143.146 98.9741 143.146C98.0122 143.146 97.2554 142.841 96.7036 142.231V146.047H95.3486V135.075H96.5864L96.6523 135.954C97.2041 135.271 97.9707 134.929 98.9521 134.929C99.9043 134.929 100.656 135.288 101.208 136.005C101.765 136.723 102.043 137.722 102.043 139.001V139.125ZM100.688 138.972C100.688 138.078 100.498 137.373 100.117 136.855C99.7358 136.337 99.2134 136.079 98.5493 136.079C97.729 136.079 97.1138 136.442 96.7036 137.17V140.957C97.1089 141.679 97.729 142.041 98.564 142.041C99.2134 142.041 99.7285 141.784 100.109 141.271C100.495 140.754 100.688 139.987 100.688 138.972ZM107.946 143V136.123H106.694V135.075H107.946V134.401C107.946 133.518 108.198 132.829 108.701 132.336C109.208 131.843 109.924 131.596 110.847 131.596C111.394 131.596 112.084 131.745 112.919 132.043L112.692 133.186C112.082 132.941 111.501 132.819 110.949 132.819C110.368 132.819 109.948 132.951 109.689 133.215C109.436 133.474 109.309 133.864 109.309 134.387V135.075H110.927V136.123H109.309V143H107.946ZM113.593 143H112.231V135.075H113.593V143ZM117.27 143H115.915V131.75H117.27V143ZM122.734 143.146C121.66 143.146 120.786 142.795 120.112 142.092C119.438 141.384 119.101 140.439 119.101 139.257V139.008C119.101 138.222 119.25 137.521 119.548 136.906C119.851 136.286 120.271 135.803 120.808 135.456C121.35 135.104 121.936 134.929 122.565 134.929C123.596 134.929 124.396 135.268 124.968 135.947C125.539 136.625 125.825 137.597 125.825 138.862V139.426H120.456C120.476 140.207 120.703 140.839 121.137 141.323C121.577 141.801 122.133 142.041 122.807 142.041C123.286 142.041 123.691 141.943 124.023 141.748C124.355 141.552 124.646 141.293 124.895 140.971L125.722 141.616C125.058 142.636 124.062 143.146 122.734 143.146ZM122.565 136.042C122.019 136.042 121.56 136.242 121.188 136.643C120.817 137.038 120.588 137.595 120.5 138.312H124.47V138.21C124.431 137.521 124.245 136.989 123.913 136.613C123.581 136.232 123.132 136.042 122.565 136.042ZM127.348 138.671C127.348 137.568 127.495 136.508 127.788 135.493C128.085 134.477 128.527 133.554 129.113 132.724C129.699 131.894 130.307 131.308 130.937 130.966L131.215 131.86C130.502 132.407 129.917 133.242 129.458 134.365C129.003 135.488 128.754 136.745 128.71 138.137L128.703 138.759C128.703 140.644 129.047 142.28 129.736 143.667C130.151 144.497 130.644 145.146 131.215 145.615L130.937 146.442C130.288 146.081 129.667 145.476 129.077 144.626C127.924 142.966 127.348 140.981 127.348 138.671ZM137.141 140.898C137.141 140.532 137.001 140.249 136.723 140.048C136.45 139.843 135.969 139.667 135.28 139.521C134.597 139.375 134.052 139.199 133.647 138.994C133.247 138.789 132.949 138.544 132.753 138.261C132.563 137.978 132.468 137.641 132.468 137.25C132.468 136.601 132.741 136.052 133.288 135.603C133.84 135.153 134.543 134.929 135.397 134.929C136.296 134.929 137.023 135.161 137.58 135.625C138.142 136.088 138.422 136.682 138.422 137.404H137.06C137.06 137.033 136.901 136.713 136.584 136.445C136.271 136.176 135.876 136.042 135.397 136.042C134.904 136.042 134.519 136.149 134.24 136.364C133.962 136.579 133.823 136.86 133.823 137.207C133.823 137.534 133.952 137.78 134.211 137.946C134.47 138.112 134.936 138.271 135.61 138.422C136.289 138.574 136.838 138.754 137.258 138.964C137.678 139.174 137.988 139.428 138.188 139.726C138.393 140.019 138.496 140.378 138.496 140.803C138.496 141.511 138.212 142.08 137.646 142.509C137.08 142.934 136.345 143.146 135.441 143.146C134.807 143.146 134.245 143.034 133.757 142.81C133.269 142.585 132.885 142.272 132.607 141.872C132.333 141.467 132.197 141.03 132.197 140.561H133.552C133.576 141.015 133.757 141.376 134.094 141.645C134.436 141.909 134.885 142.041 135.441 142.041C135.954 142.041 136.364 141.938 136.672 141.733C136.984 141.523 137.141 141.245 137.141 140.898ZM143.388 138.745C143.388 139.833 143.244 140.878 142.956 141.879C142.673 142.875 142.236 143.796 141.645 144.641C141.059 145.485 140.444 146.086 139.799 146.442L139.514 145.615C140.266 145.039 140.869 144.145 141.323 142.934C141.782 141.718 142.016 140.371 142.026 138.891V138.657C142.026 137.631 141.918 136.679 141.704 135.8C141.489 134.917 141.188 134.125 140.803 133.427C140.422 132.729 139.992 132.185 139.514 131.794L139.799 130.966C140.444 131.323 141.057 131.918 141.638 132.753C142.224 133.588 142.661 134.509 142.949 135.515C143.242 136.521 143.388 137.597 143.388 138.745ZM150.551 136.035C151.152 135.297 151.933 134.929 152.895 134.929C154.57 134.929 155.415 135.874 155.429 137.763V143H154.074V137.756C154.069 137.185 153.938 136.762 153.679 136.489C153.425 136.215 153.027 136.079 152.485 136.079C152.045 136.079 151.66 136.196 151.328 136.43C150.996 136.665 150.737 136.972 150.551 137.353V143H149.196V131.75H150.551V136.035ZM160.747 143.146C159.672 143.146 158.798 142.795 158.125 142.092C157.451 141.384 157.114 140.439 157.114 139.257V139.008C157.114 138.222 157.263 137.521 157.561 136.906C157.863 136.286 158.283 135.803 158.82 135.456C159.362 135.104 159.948 134.929 160.578 134.929C161.608 134.929 162.409 135.268 162.98 135.947C163.552 136.625 163.837 137.597 163.837 138.862V139.426H158.469C158.488 140.207 158.715 140.839 159.15 141.323C159.589 141.801 160.146 142.041 160.82 142.041C161.298 142.041 161.704 141.943 162.036 141.748C162.368 141.552 162.658 141.293 162.907 140.971L163.735 141.616C163.071 142.636 162.075 143.146 160.747 143.146ZM160.578 136.042C160.031 136.042 159.572 136.242 159.201 136.643C158.83 137.038 158.601 137.595 158.513 138.312H162.482V138.21C162.443 137.521 162.258 136.989 161.926 136.613C161.594 136.232 161.145 136.042 160.578 136.042ZM169.243 136.291C169.038 136.257 168.815 136.24 168.576 136.24C167.688 136.24 167.084 136.618 166.767 137.375V143H165.412V135.075H166.73L166.752 135.991C167.197 135.283 167.827 134.929 168.642 134.929C168.906 134.929 169.106 134.963 169.243 135.031V136.291ZM173.637 143.146C172.563 143.146 171.689 142.795 171.015 142.092C170.341 141.384 170.004 140.439 170.004 139.257V139.008C170.004 138.222 170.153 137.521 170.451 136.906C170.754 136.286 171.174 135.803 171.711 135.456C172.253 135.104 172.839 134.929 173.469 134.929C174.499 134.929 175.3 135.268 175.871 135.947C176.442 136.625 176.728 137.597 176.728 138.862V139.426H171.359C171.379 140.207 171.606 140.839 172.041 141.323C172.48 141.801 173.037 142.041 173.71 142.041C174.189 142.041 174.594 141.943 174.926 141.748C175.258 141.552 175.549 141.293 175.798 140.971L176.625 141.616C175.961 142.636 174.965 143.146 173.637 143.146ZM173.469 136.042C172.922 136.042 172.463 136.242 172.092 136.643C171.721 137.038 171.491 137.595 171.403 138.312H175.373V138.21C175.334 137.521 175.148 136.989 174.816 136.613C174.484 136.232 174.035 136.042 173.469 136.042ZM23.6665 156.964C23.6665 156.188 23.8179 155.49 24.1206 154.87C24.4282 154.25 24.853 153.771 25.395 153.434C25.9419 153.097 26.5645 152.929 27.2627 152.929C28.3418 152.929 29.2134 153.302 29.8774 154.049C30.5464 154.796 30.8809 155.79 30.8809 157.03V157.125C30.8809 157.897 30.7319 158.59 30.4341 159.206C30.1411 159.816 29.7188 160.292 29.167 160.634C28.6201 160.976 27.9902 161.146 27.2773 161.146C26.2031 161.146 25.3315 160.773 24.6626 160.026C23.9985 159.279 23.6665 158.29 23.6665 157.06V156.964ZM25.0288 157.125C25.0288 158.004 25.2314 158.71 25.6367 159.242C26.0469 159.774 26.5938 160.041 27.2773 160.041C27.9658 160.041 28.5127 159.772 28.918 159.235C29.3232 158.693 29.5259 157.936 29.5259 156.964C29.5259 156.095 29.3184 155.392 28.9033 154.855C28.4932 154.313 27.9463 154.042 27.2627 154.042C26.5938 154.042 26.0542 154.308 25.644 154.84C25.2339 155.373 25.0288 156.134 25.0288 157.125ZM36.4106 154.291C36.2056 154.257 35.9834 154.24 35.7441 154.24C34.8555 154.24 34.2524 154.618 33.9351 155.375V161H32.5801V153.075H33.8984L33.9204 153.991C34.3647 153.283 34.9946 152.929 35.8101 152.929C36.0737 152.929 36.2739 152.963 36.4106 153.031V154.291ZM44.5625 160.041C45.0459 160.041 45.4683 159.894 45.8296 159.601C46.1909 159.308 46.3911 158.942 46.4302 158.502H47.7119C47.6875 158.957 47.5312 159.389 47.2432 159.799C46.9551 160.209 46.5693 160.536 46.0859 160.78C45.6074 161.024 45.0996 161.146 44.5625 161.146C43.4834 161.146 42.624 160.788 41.9844 160.07C41.3496 159.347 41.0322 158.361 41.0322 157.111V156.884C41.0322 156.112 41.1738 155.426 41.457 154.826C41.7402 154.225 42.1455 153.759 42.6729 153.427C43.2051 153.095 43.8325 152.929 44.5552 152.929C45.4438 152.929 46.1812 153.195 46.7671 153.727C47.3579 154.259 47.6729 154.95 47.7119 155.8H46.4302C46.3911 155.287 46.1958 154.867 45.8442 154.54C45.4976 154.208 45.0679 154.042 44.5552 154.042C43.8667 154.042 43.332 154.291 42.9512 154.789C42.5752 155.282 42.3872 155.998 42.3872 156.935V157.191C42.3872 158.104 42.5752 158.808 42.9512 159.301C43.3271 159.794 43.8643 160.041 44.5625 160.041ZM50.7075 161H49.3525V149.75H50.7075V161ZM54.355 161H53V153.075H54.355V161ZM52.8901 150.973C52.8901 150.753 52.9561 150.568 53.0879 150.417C53.2246 150.265 53.4248 150.189 53.6885 150.189C53.9521 150.189 54.1523 150.265 54.2891 150.417C54.4258 150.568 54.4941 150.753 54.4941 150.973C54.4941 151.193 54.4258 151.376 54.2891 151.522C54.1523 151.669 53.9521 151.742 53.6885 151.742C53.4248 151.742 53.2246 151.669 53.0879 151.522C52.9561 151.376 52.8901 151.193 52.8901 150.973ZM59.709 160.041C60.1924 160.041 60.6147 159.894 60.9761 159.601C61.3374 159.308 61.5376 158.942 61.5767 158.502H62.8584C62.834 158.957 62.6777 159.389 62.3896 159.799C62.1016 160.209 61.7158 160.536 61.2324 160.78C60.7539 161.024 60.2461 161.146 59.709 161.146C58.6299 161.146 57.7705 160.788 57.1309 160.07C56.4961 159.347 56.1787 158.361 56.1787 157.111V156.884C56.1787 156.112 56.3203 155.426 56.6035 154.826C56.8867 154.225 57.292 153.759 57.8193 153.427C58.3516 153.095 58.979 152.929 59.7017 152.929C60.5903 152.929 61.3276 153.195 61.9136 153.727C62.5044 154.259 62.8193 154.95 62.8584 155.8H61.5767C61.5376 155.287 61.3423 154.867 60.9907 154.54C60.644 154.208 60.2144 154.042 59.7017 154.042C59.0132 154.042 58.4785 154.291 58.0977 154.789C57.7217 155.282 57.5337 155.998 57.5337 156.935V157.191C57.5337 158.104 57.7217 158.808 58.0977 159.301C58.4736 159.794 59.0107 160.041 59.709 160.041ZM66.5938 157.331L65.7441 158.217V161H64.3892V149.75H65.7441V156.554L66.4692 155.683L68.9375 153.075H70.5854L67.502 156.386L70.9443 161H69.355L66.5938 157.331ZM77.0601 154.035C77.6606 153.297 78.4419 152.929 79.4038 152.929C81.0786 152.929 81.9233 153.874 81.938 155.763V161H80.583V155.756C80.5781 155.185 80.4463 154.762 80.1875 154.489C79.9336 154.215 79.5356 154.079 78.9937 154.079C78.5542 154.079 78.1685 154.196 77.8364 154.43C77.5044 154.665 77.2456 154.972 77.0601 155.353V161H75.7051V149.75H77.0601V154.035ZM87.2554 161.146C86.1812 161.146 85.3071 160.795 84.6333 160.092C83.9595 159.384 83.6226 158.439 83.6226 157.257V157.008C83.6226 156.222 83.7715 155.521 84.0693 154.906C84.3721 154.286 84.792 153.803 85.3291 153.456C85.8711 153.104 86.457 152.929 87.0869 152.929C88.1172 152.929 88.918 153.268 89.4893 153.947C90.0605 154.625 90.3462 155.597 90.3462 156.862V157.426H84.9775C84.9971 158.207 85.2241 158.839 85.6587 159.323C86.0981 159.801 86.6548 160.041 87.3286 160.041C87.8071 160.041 88.2124 159.943 88.5444 159.748C88.8765 159.552 89.167 159.293 89.416 158.971L90.2437 159.616C89.5796 160.636 88.5835 161.146 87.2554 161.146ZM87.0869 154.042C86.54 154.042 86.0811 154.242 85.71 154.643C85.3389 155.038 85.1094 155.595 85.0215 156.312H88.9912V156.21C88.9521 155.521 88.7666 154.989 88.4346 154.613C88.1025 154.232 87.6533 154.042 87.0869 154.042ZM95.7515 154.291C95.5464 154.257 95.3242 154.24 95.085 154.24C94.1963 154.24 93.5933 154.618 93.2759 155.375V161H91.9209V153.075H93.2393L93.2612 153.991C93.7056 153.283 94.3354 152.929 95.1509 152.929C95.4146 152.929 95.6147 152.963 95.7515 153.031V154.291ZM100.146 161.146C99.0718 161.146 98.1978 160.795 97.5239 160.092C96.8501 159.384 96.5132 158.439 96.5132 157.257V157.008C96.5132 156.222 96.6621 155.521 96.96 154.906C97.2627 154.286 97.6826 153.803 98.2197 153.456C98.7617 153.104 99.3477 152.929 99.9775 152.929C101.008 152.929 101.809 153.268 102.38 153.947C102.951 154.625 103.237 155.597 103.237 156.862V157.426H97.8682C97.8877 158.207 98.1147 158.839 98.5493 159.323C98.9888 159.801 99.5454 160.041 100.219 160.041C100.698 160.041 101.103 159.943 101.435 159.748C101.767 159.552 102.058 159.293 102.307 158.971L103.134 159.616C102.47 160.636 101.474 161.146 100.146 161.146ZM99.9775 154.042C99.4307 154.042 98.9717 154.242 98.6006 154.643C98.2295 155.038 98 155.595 97.9121 156.312H101.882V156.21C101.843 155.521 101.657 154.989 101.325 154.613C100.993 154.232 100.544 154.042 99.9775 154.042ZM110.371 151.156V153.075H111.85V154.123H110.371V159.037C110.371 159.354 110.437 159.594 110.568 159.755C110.7 159.911 110.925 159.989 111.242 159.989C111.398 159.989 111.613 159.96 111.887 159.901V161C111.53 161.098 111.184 161.146 110.847 161.146C110.241 161.146 109.785 160.963 109.477 160.597C109.169 160.231 109.016 159.711 109.016 159.037V154.123H107.573V153.075H109.016V151.156H110.371ZM112.934 156.964C112.934 156.188 113.085 155.49 113.388 154.87C113.696 154.25 114.121 153.771 114.663 153.434C115.209 153.097 115.832 152.929 116.53 152.929C117.609 152.929 118.481 153.302 119.145 154.049C119.814 154.796 120.148 155.79 120.148 157.03V157.125C120.148 157.897 120 158.59 119.702 159.206C119.409 159.816 118.986 160.292 118.435 160.634C117.888 160.976 117.258 161.146 116.545 161.146C115.471 161.146 114.599 160.773 113.93 160.026C113.266 159.279 112.934 158.29 112.934 157.06V156.964ZM114.296 157.125C114.296 158.004 114.499 158.71 114.904 159.242C115.314 159.774 115.861 160.041 116.545 160.041C117.233 160.041 117.78 159.772 118.186 159.235C118.591 158.693 118.793 157.936 118.793 156.964C118.793 156.095 118.586 155.392 118.171 154.855C117.761 154.313 117.214 154.042 116.53 154.042C115.861 154.042 115.322 154.308 114.912 154.84C114.501 155.373 114.296 156.134 114.296 157.125ZM130.461 160.216C129.934 160.836 129.16 161.146 128.139 161.146C127.294 161.146 126.65 160.902 126.206 160.414C125.766 159.921 125.544 159.193 125.539 158.231V153.075H126.894V158.195C126.894 159.396 127.382 159.997 128.359 159.997C129.394 159.997 130.083 159.611 130.424 158.839V153.075H131.779V161H130.49L130.461 160.216ZM140.539 157.125C140.539 158.332 140.263 159.303 139.711 160.041C139.16 160.778 138.413 161.146 137.47 161.146C136.508 161.146 135.751 160.841 135.2 160.231V164.047H133.845V153.075H135.083L135.148 153.954C135.7 153.271 136.467 152.929 137.448 152.929C138.4 152.929 139.152 153.288 139.704 154.005C140.261 154.723 140.539 155.722 140.539 157.001V157.125ZM139.184 156.972C139.184 156.078 138.994 155.373 138.613 154.855C138.232 154.337 137.709 154.079 137.045 154.079C136.225 154.079 135.61 154.442 135.2 155.17V158.957C135.605 159.679 136.225 160.041 137.06 160.041C137.709 160.041 138.225 159.784 138.605 159.271C138.991 158.754 139.184 157.987 139.184 156.972ZM143.74 161H142.385V149.75H143.74V161ZM145.556 156.964C145.556 156.188 145.708 155.49 146.01 154.87C146.318 154.25 146.743 153.771 147.285 153.434C147.832 153.097 148.454 152.929 149.152 152.929C150.231 152.929 151.103 153.302 151.767 154.049C152.436 154.796 152.771 155.79 152.771 157.03V157.125C152.771 157.897 152.622 158.59 152.324 159.206C152.031 159.816 151.608 160.292 151.057 160.634C150.51 160.976 149.88 161.146 149.167 161.146C148.093 161.146 147.221 160.773 146.552 160.026C145.888 159.279 145.556 158.29 145.556 157.06V156.964ZM146.918 157.125C146.918 158.004 147.121 158.71 147.526 159.242C147.937 159.774 148.483 160.041 149.167 160.041C149.855 160.041 150.402 159.772 150.808 159.235C151.213 158.693 151.416 157.936 151.416 156.964C151.416 156.095 151.208 155.392 150.793 154.855C150.383 154.313 149.836 154.042 149.152 154.042C148.483 154.042 147.944 154.308 147.534 154.84C147.124 155.373 146.918 156.134 146.918 157.125ZM159.362 161C159.284 160.844 159.221 160.565 159.172 160.165C158.542 160.819 157.79 161.146 156.916 161.146C156.135 161.146 155.493 160.927 154.99 160.487C154.492 160.043 154.243 159.481 154.243 158.803C154.243 157.978 154.555 157.338 155.18 156.884C155.81 156.425 156.694 156.195 157.832 156.195H159.15V155.573C159.15 155.099 159.008 154.723 158.725 154.445C158.442 154.162 158.024 154.02 157.473 154.02C156.989 154.02 156.584 154.142 156.257 154.386C155.93 154.63 155.766 154.926 155.766 155.272H154.404C154.404 154.877 154.543 154.496 154.821 154.13C155.104 153.759 155.485 153.466 155.964 153.251C156.447 153.036 156.977 152.929 157.553 152.929C158.466 152.929 159.182 153.158 159.699 153.617C160.217 154.071 160.485 154.699 160.505 155.5V159.147C160.505 159.875 160.598 160.453 160.783 160.883V161H159.362ZM157.114 159.967C157.539 159.967 157.941 159.857 158.322 159.638C158.703 159.418 158.979 159.132 159.15 158.781V157.155H158.088C156.428 157.155 155.598 157.641 155.598 158.612C155.598 159.037 155.739 159.369 156.022 159.608C156.306 159.848 156.669 159.967 157.114 159.967ZM162.299 156.972C162.299 155.756 162.587 154.779 163.164 154.042C163.74 153.3 164.494 152.929 165.427 152.929C166.354 152.929 167.089 153.246 167.631 153.881V149.75H168.986V161H167.741L167.675 160.15C167.133 160.814 166.379 161.146 165.412 161.146C164.494 161.146 163.745 160.771 163.164 160.019C162.587 159.267 162.299 158.285 162.299 157.074V156.972ZM163.654 157.125C163.654 158.024 163.84 158.727 164.211 159.235C164.582 159.743 165.095 159.997 165.749 159.997C166.608 159.997 167.236 159.611 167.631 158.839V155.199C167.226 154.452 166.604 154.079 165.764 154.079C165.1 154.079 164.582 154.335 164.211 154.848C163.84 155.36 163.654 156.12 163.654 157.125Z" fill="#787878"/>
</svg>
